<?xml version="1.0" encoding="UTF-8"?><svg id="Layer_2" xmlns="http://www.w3.org/2000/svg" xmlns:xlink="http://www.w3.org/1999/xlink" viewBox="0 0 269.5 408.75"><defs><style>.cls-1{fill:url(#Unnamed_Pattern_2);}.cls-1,.cls-2{stroke:#fff;stroke-miterlimit:10;}.cls-2,.cls-3{fill:none;}.cls-4{fill:#e35252;}.cls-5{fill:#f7f7f7;}</style><pattern id="Unnamed_Pattern_2" x="0" y="0" width="39" height="23" patternTransform="translate(-418.78 -750.61)" patternUnits="userSpaceOnUse" viewBox="0 0 39 23"><rect class="cls-3" width="39" height="23"/><path class="cls-5" d="M28.5,22.28c-.44-.26-1-.12-1.26.31-.26.44-.12,1,.31,1.26.44.26,1,.12,1.26-.31.26-.44.12-1-.31-1.26Z"/><path class="cls-5" d="M47.98,23.14c1.96,2.28.85,4.44-.48,4.27-1.33-.17-1.07-1.44-.22-2.11.36-.28.14-.7-.46-1.41-1.58,1.1-3.12,1.3-4.46,1.1.82,1.05,1.39,2.47,1.23,4.35.91.17,1.52.06,1.58-.39.15-1.07,1.12-1.93,1.93-.87s-.64,3.19-3.59,2.63c-.05-.01-.09-.03-.14-.05-.01.05-.01.09-.03.15-.94,2.85-3.36,3.02-3.9,1.79-.54-1.23.68-1.66,1.69-1.27.43.16.67-.24.96-1.12-1.61-.72-2.56-1.81-3.1-2.95-.55,1.14-1.49,2.23-3.1,2.95.3.88.54,1.28.96,1.12,1.01-.38,2.23.04,1.69,1.27-.54,1.23-2.96,1.06-3.9-1.79-.01-.05-.02-.1-.03-.15-.05.01-.09.03-.14.05-2.95.56-4.41-1.56-3.59-2.63s1.78-.2,1.93.87c.06.45.67.55,1.58.39-.15-1.82.39-3.21,1.16-4.26-1.34.17-2.87-.06-4.42-1.18-.61.69-.84,1.11-.49,1.39.84.68,1.08,1.95-.26,2.1-1.33.15-2.39-2.03-.4-4.27.04-.04.07-.06.11-.1-.04-.04-.07-.06-.11-.1-1.96-2.28-.85-4.6.48-4.42s1.07,1.44.22,2.11c-.36.28-.14.86.46,1.56,1.56-1.08,3.08-1.29,4.41-1.1-.85-1.06-1.45-2.5-1.29-4.43-.91-.17-1.38-.14-1.45.31-.15,1.07-1.12,1.93-1.93.87-.81-1.07.51-3.11,3.45-2.55.05.01.09.03.14.05.01-.05.02-.09.03-.15.94-2.85,3.5-3.11,4.04-1.88.54,1.23-.68,1.66-1.69,1.27-.43-.16-.81.33-1.11,1.2,1.74.78,2.7,1.99,3.23,3.23.52-1.24,1.49-2.45,3.23-3.23-.3-.88-.68-1.37-1.11-1.2-1.01.38-2.23-.04-1.69-1.27.54-1.23,3.1-.97,4.04,1.88.01.05.02.1.03.15.05-.01.09-.03.14-.05,2.95-.56,4.27,1.48,3.45,2.55-.81,1.07-1.78.2-1.93-.87-.06-.45-.53-.47-1.45-.31.16,1.87-.41,3.28-1.22,4.33,1.32-.15,2.82.09,4.33,1.19.61-.69.84-1.27.49-1.56-.84-.68-1.08-1.95.26-2.1,1.33-.15,2.39,2.2.4,4.44-.04.04-.07.06-.11.1.04.04.07.06.11.1ZM39.53,21.02c.04.33.06.65.06.94.26-.15.56-.3.88-.44.28-.3.63-.7,1.07-1.27.76-1,.99-2.17.94-3.19-.93.45-1.84,1.21-2.34,2.36-.3.69-.48,1.2-.61,1.59ZM37.78,21.77c.23.11.45.23.65.35,0-.33.01-.7.06-1.09-.12-.4-.31-.91-.61-1.59-.5-1.15-1.41-1.92-2.34-2.36-.06,1.03.17,2.19.94,3.19.56.74.99,1.21,1.3,1.51ZM35.37,23.9c.74-.08,1.28-.18,1.68-.27.32-.24.63-.43.92-.6-.21-.11-.43-.25-.66-.4-.42-.12-1.03-.25-1.93-.36-1.25-.16-2.37.22-3.23.78.85.58,1.97.98,3.22.85ZM38.44,25.49c-.08-.46-.12-.91-.13-1.31-.21.11-.43.23-.67.33-.28.29-.61.68-1.03,1.23-.76,1-.99,2.17-.94,3.19.93-.45,1.84-1.21,2.34-2.36.19-.43.32-.78.44-1.09ZM40.17,24.29c-.16-.08-.32-.16-.46-.24,0,.43-.04.92-.13,1.44.11.31.25.66.44,1.09.5,1.15,1.41,1.92,2.34,2.36.06-1.03-.17-2.19-.94-3.19-.53-.69-.94-1.15-1.24-1.45ZM45.84,23.02c-.85-.58-1.97-.98-3.22-.85-.72.08-1.24.17-1.64.26-.33.24-.65.43-.95.6.21.12.44.26.66.41.42.12,1.02.24,1.91.36,1.25.16,2.37-.22,3.23-.79Z"/><path class="cls-5" d="M33.04,14.29c.44.25,1,.09,1.25-.36.25-.44.09-1-.36-1.25-.44-.25-1-.09-1.25.36-.25.44-.09,1,.36,1.25Z"/><path class="cls-5" d="M8.98,23.14c1.96,2.28.85,4.44-.48,4.27-1.33-.17-1.07-1.44-.22-2.11.36-.28.14-.7-.46-1.41-1.58,1.1-3.12,1.3-4.46,1.1.82,1.05,1.39,2.47,1.23,4.35.91.17,1.52.06,1.58-.39.15-1.07,1.12-1.93,1.93-.87s-.64,3.19-3.59,2.63c-.05-.01-.09-.03-.14-.05-.01.05-.01.09-.03.15-.94,2.85-3.36,3.02-3.9,1.79-.54-1.23.68-1.66,1.69-1.27.43.16.67-.24.96-1.12-1.61-.72-2.56-1.81-3.1-2.95-.55,1.14-1.49,2.23-3.1,2.95.3.88.54,1.28.96,1.12,1.01-.38,2.23.04,1.69,1.27-.54,1.23-2.96,1.06-3.9-1.79-.01-.05-.02-.1-.03-.15-.05.01-.09.03-.14.05-2.95.56-4.41-1.56-3.59-2.63.81-1.07,1.78-.2,1.93.87.06.45.67.55,1.58.39-.15-1.82.39-3.21,1.16-4.26-1.34.17-2.87-.06-4.42-1.18-.61.69-.84,1.11-.49,1.39.84.68,1.08,1.95-.26,2.1-1.33.15-2.4-2.03-.4-4.27.04-.04.07-.06.11-.1-.04-.04-.07-.06-.11-.1-1.96-2.28-.85-4.6.48-4.42,1.33.17,1.07,1.44.22,2.11-.36.28-.14.86.46,1.56,1.56-1.08,3.08-1.29,4.41-1.1-.85-1.06-1.45-2.5-1.29-4.43-.91-.17-1.38-.14-1.45.31-.15,1.07-1.12,1.93-1.93.87-.81-1.07.51-3.11,3.45-2.55.05.01.09.03.14.05.01-.05.02-.09.03-.15.94-2.85,3.5-3.11,4.04-1.88.54,1.23-.68,1.66-1.69,1.27-.43-.16-.81.33-1.11,1.2,1.74.78,2.7,1.99,3.23,3.23.52-1.24,1.49-2.45,3.23-3.23-.3-.88-.68-1.37-1.11-1.2-1.01.38-2.23-.04-1.69-1.27.54-1.23,3.1-.97,4.04,1.88.01.05.02.1.03.15.05-.01.09-.03.14-.05,2.95-.56,4.27,1.48,3.45,2.55-.81,1.07-1.78.2-1.93-.87-.06-.45-.53-.47-1.45-.31.16,1.87-.41,3.28-1.22,4.33,1.32-.15,2.82.09,4.33,1.19.61-.69.84-1.27.49-1.56-.84-.68-1.08-1.95.26-2.1,1.33-.15,2.39,2.2.4,4.44-.04.04-.07.06-.11.1.04.04.07.06.11.1ZM.53,21.02c.04.33.06.65.06.94.26-.15.56-.3.88-.44.28-.3.63-.7,1.07-1.27.76-1,.99-2.17.94-3.19-.93.45-1.84,1.21-2.34,2.36-.3.69-.48,1.2-.61,1.59ZM-1.22,21.77c.23.11.45.23.65.35,0-.33.01-.7.06-1.09-.12-.4-.31-.91-.61-1.59-.5-1.15-1.41-1.92-2.34-2.36-.06,1.03.17,2.19.94,3.19.56.74.99,1.21,1.3,1.51ZM-3.63,23.9c.74-.08,1.28-.18,1.68-.27.32-.24.63-.43.92-.6-.21-.11-.43-.25-.66-.4-.42-.12-1.03-.25-1.93-.36-1.25-.16-2.37.22-3.23.78.85.58,1.97.98,3.22.85ZM-.56,25.49c-.08-.46-.12-.91-.13-1.31-.21.11-.43.23-.67.33-.28.29-.61.68-1.03,1.23-.76,1-.99,2.17-.94,3.19.93-.45,1.84-1.21,2.34-2.36.19-.43.32-.78.44-1.09ZM1.17,24.29c-.16-.08-.32-.16-.46-.24,0,.43-.04.92-.13,1.44.11.31.25.66.44,1.09.5,1.15,1.41,1.92,2.34,2.36.06-1.03-.17-2.19-.94-3.19-.53-.69-.94-1.15-1.24-1.45ZM6.84,23.02c-.85-.58-1.97-.98-3.22-.85-.72.08-1.24.17-1.64.26-.33.24-.65.43-.95.6.21.12.44.26.66.41.42.12,1.02.24,1.91.36,1.25.16,2.37-.22,3.23-.79Z"/><path class="cls-5" d="M11.45,22.23c-.44-.26-1-.12-1.26.31-.26.44-.12,1,.31,1.26.44.26,1,.12,1.26-.31.26-.44.12-1-.31-1.26Z"/><path class="cls-5" d="M5.98,14.29c.44-.25.61-.81.36-1.25-.25-.44-.81-.61-1.25-.36-.44.25-.61.81-.36,1.25.25.44.81.61,1.25.36Z"/><path class="cls-5" d="M28.5-.72c-.44-.26-1-.12-1.26.31-.26.44-.12,1,.31,1.26.44.26,1,.12,1.26-.31.26-.44.12-1-.31-1.26Z"/><path class="cls-5" d="M47.98.14c1.96,2.28.85,4.44-.48,4.27-1.33-.17-1.07-1.44-.22-2.11.36-.28.14-.7-.46-1.41-1.58,1.1-3.12,1.3-4.46,1.1.82,1.05,1.39,2.47,1.23,4.35.91.17,1.52.06,1.58-.39.15-1.07,1.12-1.93,1.93-.87.81,1.07-.64,3.19-3.59,2.63-.05-.01-.09-.03-.14-.05-.01.05-.01.09-.03.15-.94,2.85-3.36,3.02-3.9,1.79-.54-1.23.68-1.66,1.69-1.27.43.16.67-.24.96-1.12-1.61-.72-2.56-1.81-3.1-2.95-.55,1.14-1.49,2.23-3.1,2.95.3.88.54,1.28.96,1.12,1.01-.38,2.23.04,1.69,1.27-.54,1.23-2.96,1.06-3.9-1.79-.01-.05-.02-.1-.03-.15-.05.01-.09.03-.14.05-2.95.56-4.41-1.56-3.59-2.63.81-1.07,1.78-.2,1.93.87.06.45.67.55,1.58.39-.15-1.82.39-3.21,1.16-4.26-1.34.17-2.87-.06-4.42-1.18-.61.69-.84,1.11-.49,1.39.84.68,1.08,1.95-.26,2.1-1.33.15-2.39-2.03-.4-4.27.04-.04.07-.06.11-.1-.04-.04-.07-.06-.11-.1-1.96-2.28-.85-4.6.48-4.42s1.07,1.44.22,2.11c-.36.28-.14.86.46,1.56,1.56-1.08,3.08-1.29,4.41-1.1-.85-1.06-1.45-2.5-1.29-4.43-.91-.17-1.38-.14-1.45.31-.15,1.07-1.12,1.93-1.93.87-.81-1.07.51-3.11,3.45-2.55.05.01.09.03.14.05.01-.05.02-.09.03-.15.94-2.85,3.5-3.11,4.04-1.88.54,1.23-.68,1.66-1.69,1.27-.43-.16-.81.33-1.11,1.2,1.74.78,2.7,1.99,3.23,3.23.52-1.24,1.49-2.45,3.23-3.23-.3-.88-.68-1.37-1.11-1.2-1.01.38-2.23-.04-1.69-1.27.54-1.23,3.1-.97,4.04,1.88.01.05.02.1.03.15.05-.01.09-.03.14-.05,2.95-.56,4.27,1.48,3.45,2.55-.81,1.07-1.78.2-1.93-.87-.06-.45-.53-.47-1.45-.31.16,1.87-.41,3.28-1.22,4.33,1.32-.15,2.82.09,4.33,1.19.61-.69.84-1.27.49-1.56-.84-.68-1.08-1.95.26-2.1,1.33-.15,2.39,2.2.4,4.44-.04.04-.07.06-.11.1.04.04.07.06.11.1ZM39.53-1.98c.04.33.06.65.06.94.26-.15.56-.3.88-.44.28-.3.63-.7,1.07-1.27.76-1,.99-2.17.94-3.19-.93.45-1.84,1.21-2.34,2.36-.3.69-.48,1.2-.61,1.59ZM37.78-1.23c.23.11.45.23.65.35,0-.33.01-.7.06-1.09-.12-.4-.31-.91-.61-1.59-.5-1.15-1.41-1.92-2.34-2.36-.06,1.03.17,2.19.94,3.19.56.74.99,1.21,1.3,1.51ZM35.37.9c.74-.08,1.28-.18,1.68-.27.32-.24.63-.43.92-.6-.21-.11-.43-.25-.66-.4-.42-.12-1.03-.25-1.93-.36-1.25-.16-2.37.22-3.23.78.85.58,1.97.98,3.22.85ZM38.44,2.48c-.08-.46-.12-.91-.13-1.31-.21.11-.43.23-.67.33-.28.29-.61.68-1.03,1.23-.76,1-.99,2.17-.94,3.19.93-.45,1.84-1.21,2.34-2.36.19-.43.32-.78.44-1.09ZM40.17,1.29c-.16-.08-.32-.16-.46-.24,0,.43-.04.92-.13,1.44.11.31.25.66.44,1.09.5,1.15,1.41,1.92,2.34,2.36.06-1.03-.17-2.19-.94-3.19-.53-.69-.94-1.15-1.24-1.45ZM45.84.02c-.85-.58-1.97-.98-3.22-.85-.72.08-1.24.17-1.64.26-.33.24-.65.43-.95.6.21.12.44.26.66.41.42.12,1.02.24,1.91.36,1.25.16,2.37-.22,3.23-.79Z"/><path class="cls-5" d="M33.16,8.71c-.44.25-.61.81-.36,1.25.25.44.81.61,1.25.36.44-.25.61-.81.36-1.25-.25-.44-.81-.61-1.25-.36Z"/><path class="cls-5" d="M9,10.78c-.44-.26-1-.12-1.26.31-.26.44-.12,1,.31,1.26.44.26,1,.12,1.26-.31.26-.44.12-1-.31-1.26Z"/><path class="cls-5" d="M28.48,11.64c1.96,2.28.85,4.44-.48,4.27-1.33-.17-1.07-1.44-.22-2.11.36-.28.14-.7-.46-1.41-1.58,1.1-3.12,1.3-4.46,1.1.82,1.05,1.39,2.47,1.23,4.35.91.17,1.52.06,1.58-.39.15-1.07,1.12-1.93,1.93-.87.81,1.07-.64,3.19-3.59,2.63-.05-.01-.09-.03-.14-.05-.01.05-.01.09-.03.15-.94,2.85-3.36,3.02-3.9,1.79-.54-1.23.68-1.66,1.69-1.27.43.16.67-.24.96-1.12-1.61-.72-2.56-1.81-3.1-2.95-.55,1.14-1.49,2.23-3.1,2.95.3.88.54,1.28.96,1.12,1.01-.38,2.23.04,1.69,1.27-.54,1.23-2.96,1.06-3.9-1.79-.01-.05-.02-.1-.03-.15-.05.01-.09.03-.14.05-2.95.56-4.41-1.56-3.59-2.63.81-1.07,1.78-.2,1.93.87.06.45.67.55,1.58.39-.15-1.82.39-3.21,1.16-4.26-1.34.17-2.87-.06-4.42-1.18-.61.69-.84,1.11-.49,1.39.84.68,1.08,1.95-.26,2.1-1.33.15-2.39-2.03-.4-4.27.04-.04.07-.06.11-.1-.04-.04-.07-.06-.11-.1-1.96-2.28-.85-4.6.48-4.42s1.07,1.44.22,2.11c-.36.28-.14.86.46,1.56,1.56-1.08,3.08-1.29,4.41-1.1-.85-1.06-1.45-2.5-1.29-4.43-.91-.17-1.38-.14-1.45.31-.15,1.07-1.12,1.93-1.93.87-.81-1.07.51-3.11,3.45-2.55.05.01.09.03.14.05.01-.05.02-.09.03-.15.94-2.85,3.5-3.11,4.04-1.88.54,1.23-.68,1.66-1.69,1.27-.43-.16-.81.33-1.11,1.2,1.74.78,2.7,1.99,3.23,3.23.52-1.24,1.49-2.45,3.23-3.23-.3-.88-.68-1.37-1.11-1.2-1.01.38-2.23-.04-1.69-1.27.54-1.23,3.1-.97,4.04,1.88.01.05.02.1.03.15.05-.01.09-.03.14-.05,2.95-.56,4.27,1.48,3.45,2.55-.81,1.07-1.78.2-1.93-.87-.06-.45-.53-.47-1.45-.31.16,1.87-.41,3.28-1.22,4.33,1.32-.15,2.82.09,4.33,1.19.61-.69.84-1.27.49-1.56-.84-.68-1.08-1.95.26-2.1,1.33-.15,2.39,2.2.4,4.44-.04.04-.07.06-.11.1.04.04.07.06.11.1ZM20.03,9.52c.04.33.06.65.06.94.26-.15.56-.3.88-.44.28-.3.63-.7,1.07-1.27.76-1,.99-2.17.94-3.19-.93.45-1.84,1.21-2.34,2.36-.3.69-.48,1.2-.61,1.59ZM18.28,10.27c.23.11.45.23.65.35,0-.33.01-.7.06-1.09-.12-.4-.31-.91-.61-1.59-.5-1.15-1.41-1.92-2.34-2.36-.06,1.03.17,2.19.94,3.19.56.74.99,1.21,1.3,1.51ZM15.87,12.4c.74-.08,1.28-.18,1.68-.27.32-.24.63-.43.92-.6-.21-.11-.43-.25-.66-.4-.42-.12-1.03-.25-1.93-.36-1.25-.16-2.37.22-3.23.78.85.58,1.97.98,3.22.85ZM18.94,13.98c-.08-.46-.12-.91-.13-1.31-.21.11-.43.23-.67.33-.28.29-.61.68-1.03,1.23-.76,1-.99,2.17-.94,3.19.93-.45,1.84-1.21,2.34-2.36.19-.43.32-.78.44-1.09ZM20.67,12.79c-.16-.08-.32-.16-.46-.24,0,.43-.04.92-.13,1.44.11.31.25.66.44,1.09.5,1.15,1.41,1.92,2.34,2.36.06-1.03-.17-2.19-.94-3.19-.53-.69-.94-1.15-1.24-1.45ZM26.34,11.52c-.85-.58-1.97-.98-3.22-.85-.72.08-1.24.17-1.64.26-.33.24-.65.43-.95.6.21.12.44.26.66.41.42.12,1.02.24,1.91.36,1.25.16,2.37-.22,3.23-.79Z"/><path class="cls-5" d="M30.95,10.73c-.44-.26-1-.12-1.26.31-.26.44-.12,1,.31,1.26.44.26,1,.12,1.26-.31.26-.44.12-1-.31-1.26Z"/><path class="cls-5" d="M13.66,20.21c-.44.25-.61.81-.36,1.25.25.44.81.61,1.25.36.44-.25.61-.81.36-1.25-.25-.44-.81-.61-1.25-.36Z"/><path class="cls-5" d="M25.48,2.79c.44-.25.61-.81.36-1.25-.25-.44-.81-.61-1.25-.36-.44.25-.61.81-.36,1.25.25.44.81.61,1.25.36Z"/><path class="cls-5" d="M25.36,20.21c-.44-.25-1-.09-1.25.36-.25.44-.09,1,.36,1.25.44.25,1,.09,1.25-.36.25-.44.09-1-.36-1.25Z"/><path class="cls-5" d="M13.54,2.79c.44.25,1,.09,1.25-.36.25-.44.09-1-.36-1.25-.44-.25-1-.09-1.25.36-.25.44-.09,1,.36,1.25Z"/><path class="cls-5" d="M8.98.14c1.96,2.28.85,4.44-.48,4.27-1.33-.17-1.07-1.44-.22-2.11.36-.28.14-.7-.46-1.41-1.58,1.1-3.12,1.3-4.46,1.1.82,1.05,1.39,2.47,1.23,4.35.91.17,1.52.06,1.58-.39.15-1.07,1.12-1.93,1.93-.87.81,1.07-.64,3.19-3.59,2.63-.05-.01-.09-.03-.14-.05-.01.05-.01.09-.03.15-.94,2.85-3.36,3.02-3.9,1.79-.54-1.23.68-1.66,1.69-1.27.43.16.67-.24.96-1.12C1.5,6.51.56,5.42,0,4.28c-.55,1.14-1.49,2.23-3.1,2.95.3.88.54,1.28.96,1.12,1.01-.38,2.23.04,1.69,1.27-.54,1.23-2.96,1.06-3.9-1.79-.01-.05-.02-.1-.03-.15-.05.01-.09.03-.14.05-2.95.56-4.41-1.56-3.59-2.63.81-1.07,1.78-.2,1.93.87.06.45.67.55,1.58.39-.15-1.82.39-3.21,1.16-4.26-1.34.17-2.87-.06-4.42-1.18-.61.69-.84,1.11-.49,1.39.84.68,1.08,1.95-.26,2.1-1.33.15-2.4-2.03-.4-4.27.04-.04.07-.06.11-.1-.04-.04-.07-.06-.11-.1-1.96-2.28-.85-4.6.48-4.42,1.33.17,1.07,1.44.22,2.11-.36.28-.14.86.46,1.56,1.56-1.08,3.08-1.29,4.41-1.1-.85-1.06-1.45-2.5-1.29-4.43-.91-.17-1.38-.14-1.45.31-.15,1.07-1.12,1.93-1.93.87-.81-1.07.51-3.11,3.45-2.55.05.01.09.03.14.05.01-.05.02-.09.03-.15.94-2.85,3.5-3.11,4.04-1.88.54,1.23-.68,1.66-1.69,1.27-.43-.16-.81.33-1.11,1.2C-1.48-6.45-.52-5.24,0-4c.52-1.24,1.49-2.45,3.23-3.23-.3-.88-.68-1.37-1.11-1.2-1.01.38-2.23-.04-1.69-1.27.54-1.23,3.1-.97,4.04,1.88.01.05.02.1.03.15.05-.01.09-.03.14-.05,2.95-.56,4.27,1.48,3.45,2.55-.81,1.07-1.78.2-1.93-.87-.06-.45-.53-.47-1.45-.31.16,1.87-.41,3.28-1.22,4.33,1.32-.15,2.82.09,4.33,1.19.61-.69.84-1.27.49-1.56-.84-.68-1.08-1.95.26-2.1,1.33-.15,2.39,2.2.4,4.44-.04.04-.07.06-.11.1.04.04.07.06.11.1ZM.53-1.98c.04.33.06.65.06.94.26-.15.56-.3.88-.44.28-.3.63-.7,1.07-1.27.76-1,.99-2.17.94-3.19-.93.45-1.84,1.21-2.34,2.36-.3.69-.48,1.2-.61,1.59ZM-1.22-1.23c.23.11.45.23.65.35,0-.33.01-.7.06-1.09-.12-.4-.31-.91-.61-1.59-.5-1.15-1.41-1.92-2.34-2.36-.06,1.03.17,2.19.94,3.19.56.74.99,1.21,1.3,1.51ZM-3.63.9c.74-.08,1.28-.18,1.68-.27.32-.24.63-.43.92-.6-.21-.11-.43-.25-.66-.4-.42-.12-1.03-.25-1.93-.36-1.25-.16-2.37.22-3.23.78.85.58,1.97.98,3.22.85ZM-.56,2.48c-.08-.46-.12-.91-.13-1.31-.21.11-.43.23-.67.33-.28.29-.61.68-1.03,1.23-.76,1-.99,2.17-.94,3.19.93-.45,1.84-1.21,2.34-2.36.19-.43.32-.78.44-1.09ZM1.17,1.29c-.16-.08-.32-.16-.46-.24,0,.43-.04.92-.13,1.44.11.31.25.66.44,1.09.5,1.15,1.41,1.92,2.34,2.36.06-1.03-.17-2.19-.94-3.19-.53-.69-.94-1.15-1.24-1.45ZM6.84.02c-.85-.58-1.97-.98-3.22-.85-.72.08-1.24.17-1.64.26-.33.24-.65.43-.95.6.21.12.44.26.66.41.42.12,1.02.24,1.91.36,1.25.16,2.37-.22,3.23-.79Z"/><path class="cls-5" d="M11.45-.77c-.44-.26-1-.12-1.26.31-.26.44-.12,1,.31,1.26.44.26,1,.12,1.26-.31.26-.44.12-1-.31-1.26Z"/><path class="cls-5" d="M5.86,8.71c-.44-.25-1-.09-1.25.36-.25.44-.09,1,.36,1.25.44.25,1,.09,1.25-.36.25-.44.09-1-.36-1.25Z"/></pattern></defs><g id="OBJECTS"><rect class="cls-5" width="269.5" height="408.75" rx="8.94" ry="8.94"/><path class="cls-4" d="M249.71,390.75H19.79c-.99,0-1.79-.8-1.79-1.79V19.79c0-.99.8-1.79,1.79-1.79h229.91c.99,0,1.79.8,1.79,1.79v369.17c0,.99-.8,1.79-1.79,1.79Z"/><path class="cls-3" d="M223.41,370.24H46.08c-3.3,0-5.98-2.89-5.98-6.45V46.22c0-3.56,2.68-6.45,5.98-6.45h177.33c3.3,0,5.98,2.89,5.98,6.45v317.57c0,3.56-2.68,6.45-5.98,6.45Z"/><path class="cls-5" d="M175.57,369.83c0-.85-.71-1.54-1.58-1.54s-1.58.69-1.58,1.54.71,1.54,1.58,1.54,1.58-.69,1.58-1.54Z"/><path class="cls-5" d="M196.96,369.83c0,.85.71,1.54,1.58,1.54s1.58-.69,1.58-1.54-.71-1.54-1.58-1.54-1.58.69-1.58,1.54Z"/><path class="cls-5" d="M181.5,380.95c.44-.74.18-1.68-.58-2.1-.76-.42-1.72-.17-2.16.56-.44.74-.18,1.68.58,2.1.76.42,1.72.17,2.16-.56Z"/><path class="cls-5" d="M187.42,359.21c.45,2.14,1.26,4.41.13,6.31-.47.8-.92,1.06-1.29,1.1-.36-.04-.81-.3-1.29-1.1-1.13-1.9-.32-4.18.13-6.31.45-2.14-1.85-3.68-2.5-.19-.58,3.14-.97,3.01-.97,3.01,0,0-.08.39-3.16-.68-3.42-1.2-3.2,1.51-1.08,2.2,2.12.69,4.55,1.14,5.68,3.05.47.8.48,1.31.33,1.63-.21.29-.67.54-1.62.54-2.26,0-3.87-1.82-5.55-3.27-1.68-1.45-4.2-.28-1.42,2.01,2.5,2.06,2.19,2.32,2.19,2.32,0,0,.31.26-2.19,2.32-2.78,2.29-.26,3.46,1.42,2.01,1.68-1.45,3.29-3.27,5.55-3.27.95,0,1.4.25,1.62.54.15.32.14.83-.33,1.63-1.13,1.9-3.55,2.35-5.68,3.05-2.12.69-2.35,3.4,1.08,2.2,3.08-1.08,3.16-.68,3.16-.68,0,0,.39-.13.97,3.01.65,3.49,2.94,1.95,2.5-.19-.45-2.14-1.26-4.41-.13-6.31.47-.8.92-1.06,1.29-1.1.36.04.81.3,1.29,1.1,1.13,1.9.32,4.18-.13,6.31-.45,2.14,1.85,3.68,2.5.19.58-3.14.97-3.01.97-3.01,0,0,.08-.39,3.16.68,3.42,1.2,3.2-1.51,1.08-2.2-2.12-.69-4.55-1.14-5.68-3.05-.47-.8-.48-1.31-.33-1.63.21-.29.67-.54,1.62-.54,2.26,0,3.87,1.82,5.55,3.27,1.68,1.45,4.2.28,1.42-2.01-2.5-2.06-2.19-2.32-2.19-2.32,0,0-.31-.26,2.19-2.32,2.78-2.29.26-3.46-1.42-2.01-1.68,1.45-3.29,3.27-5.55,3.27-.95,0-1.4-.25-1.62-.54-.15-.32-.14-.83.33-1.63,1.13-1.9,3.55-2.35,5.68-3.05,2.12-.69,2.35-3.4-1.08-2.2-3.08,1.08-3.16.68-3.16.68,0,0-.39.13-.97-3.01-.65-3.49-2.94-1.95-2.5.19Z"/><path class="cls-5" d="M191.04,358.7c-.44.74-.18,1.68.58,2.1.76.42,1.72.17,2.16-.56.44-.74.18-1.68-.58-2.1-.76-.42-1.72-.17-2.16.56Z"/><path class="cls-5" d="M181.5,358.7c-.44-.74-1.4-.99-2.16-.56-.76.42-1.01,1.37-.58,2.1.44.74,1.4.99,2.16.56.75-.42,1.01-1.37.58-2.1Z"/><path class="cls-5" d="M191.04,380.95c.44.74,1.4.99,2.16.56.76-.42,1.01-1.37.58-2.1-.44-.74-1.4-.99-2.16-.56-.76.42-1.01,1.37-.58,2.1Z"/><path class="cls-5" d="M217.35,372.12c-1.21.52-.7,1.82.34,3,.51.59,1.16,1.15,1.68,1.56.26.21.5.38.66.5.17.12.27.19.27.2-1.12-.15-3.44-.62-5.72-1.3-.57-.17-1.14-.35-1.69-.55l-.81-.3c-.24-.1-.42-.21-.63-.32-.8-.43-1.55-.9-2.16-1.4-2.45-2-6.81-1.74-6.88,0-.07,1.74,1.72,1.29,3.9,1.55,1.29.15,2.85.91,3.92,1.51-2.27.54-7.67,2.01-6.83,3.67,1.06,2.08,3.31-.08,5.29-.99.63-.29,1.44-.37,2.25-.34.2,0,.4.02.6.04.22.02.44.05.65.07.57.05,1.12.12,1.6.19-1.16.36-2.14.94-1.79,1.85.42,1,2.05.89,3.9.47,1.86-.42,3.89-1.11,5.55-1.36,1.7-.21,3.63-.52,5.13-.77,1.44-.29,2.5-.5,2.5-.5l-1.3-1.99c-.5.13-1.18.2-1.89.23-.72.02-1.54-.06-2.28-.2-1.54-.33-2.84-1.02-3.22-2.03-.78-1.99-1.76-3.32-3.04-2.79Z"/><ellipse class="cls-5" cx="200.12" cy="380.48" rx="1.58" ry="1.54"/><path class="cls-5" d="M212.06,368.29c-.86,0-1.57.69-1.57,1.54,0,.85.7,1.54,1.58,1.54.94,0,1.63-.69,1.54-1.54-.09-.85-.79-1.54-1.55-1.54Z"/><path class="cls-5" d="M207.7,368.74c-.62,0-1.12.49-1.12,1.09s.5,1.09,1.12,1.09,1.12-.49,1.12-1.09-.5-1.09-1.12-1.09Z"/><path class="cls-5" d="M212,358.6c-.13.91.17,1.49.52,1.85-.13.07-.29.13-.46.19-.02.01-.11.03-.22.04l-.3.03c-.2.02-.4.03-.6.04-.81.03-1.62-.05-2.25-.34-1.98-.9-4.23-3.07-5.29-.99-.84,1.65,4.57,3.13,6.83,3.67-1.07.6-2.63,1.36-3.92,1.51-2.18.26-3.97-.19-3.9,1.55.07,1.74,4.43,2,6.88,0,.61-.5,1.36-.97,2.16-1.4.19-.11.42-.21.59-.32l.4-.3c.25-.18.51-.37.75-.55.95-.68,1.64-1.14,2-1.31,0,.02-.02.29-.06.7-.04.43-.09,1-.15,1.56-.07,1.18-.09,2.48,1.09,3,1.31.53,1.23-.82.44-2.82-.37-1-.17-1.74.13-2.23.31-.49.77-.73,1.2-.73l-1.5-2.28s-.23.11-.62.16c-.38.05-.93.05-1.44-.16-.52-.21-1.18-.93-1.58-1.34-.41-.42-.62-.53-.72.47Z"/><path class="cls-5" d="M221.84,369.83c.59,1,.41,1.81.28,2.62-.12.79-.21,1.52.75,2.04.97.52,1.54-.05,1.77-.7.25-.65.21-1.37.21-1.37l-1.7-2.59h0s-1.91-2.92-1.91-2.92c0,0-.84-.79-1.6-1.43-.78-.64-1.46-1.12-1.53-.51-.09.61.46,1.31,1.27,2.12.8.8,1.87,1.71,2.48,2.73Z"/><path class="cls-5" d="M156.5,367.54c1.22-.52.96-1.82.39-3-.29-.59-.65-1.15-.94-1.56-.15-.21-.27-.38-.36-.5-.09-.12-.15-.19-.15-.2,1.52.32,6.15,1.87,8.6,3.87,2.45,2,6.81,1.74,6.88,0,.07-1.74-1.72-1.29-3.9-1.55-1.29-.15-2.85-.91-3.92-1.51,2.27-.54,7.67-2.01,6.83-3.67-1.06-2.08-3.31.08-5.29.99-1.27.58-3.23.31-4.49.04.78-.36,1.42-.94,1.18-1.85-.53-2-3.77.45-6.02.87-2.25.42-5.39,0-5.39,0v2.28c1.69,0,4.79.97,4.79,2.96s.46,3.35,1.79,2.82Z"/><ellipse class="cls-5" cx="161.27" cy="369.83" rx="1.58" ry="1.54"/><path class="cls-5" d="M165.63,370.92c.62,0,1.12-.49,1.12-1.09s-.5-1.09-1.12-1.09-1.12.49-1.12,1.09.5,1.09,1.12,1.09Z"/><path class="cls-5" d="M161.33,381.06c.24-.91-.41-1.49-1.18-1.85,1.26-.27,3.22-.53,4.49.04,1.98.9,4.23,3.07,5.29.99.84-1.65-4.57-3.13-6.83-3.67,1.07-.6,2.63-1.36,3.92-1.51,2.18-.26,3.97.19,3.9-1.55-.07-1.74-4.43-2-6.88,0-2.45,2-7.08,3.54-8.6,3.87,0,0,.05-.08.15-.2.09-.12.21-.3.36-.5.29-.42.65-.97.94-1.56.57-1.18.84-2.48-.39-3-1.32-.53-1.79.82-1.79,2.82s-3.11,2.96-4.79,2.96v2.28s3.14-.42,5.39,0c2.25.42,5.49,2.87,6.02.87Z"/><path class="cls-5" d="M151.26,369.83c0-2.04,2.46-3.63,1.34-4.85-1.12-1.22-2.68,1.93-2.68,1.93v2.91h0v2.92s1.55,3.16,2.68,1.93c1.12-1.22-1.34-2.81-1.34-4.85Z"/><path class="cls-5" d="M232.2,383.63l1.14,1.74c-2.23,1.01-4.8,1.85-7.75,2.14l-2.25.12h-73.42v-2h72.76l2.12-.1c2.79-.26,5.24-1,7.39-1.89Z"/><polygon class="cls-5" points="212.01 352.85 213.32 354.85 149.92 354.85 149.92 352.85 212.01 352.85"/><path class="cls-5" d="M102.08,369.83c0-.85-.71-1.54-1.58-1.54s-1.58.69-1.58,1.54.71,1.54,1.58,1.54,1.58-.69,1.58-1.54Z"/><path class="cls-5" d="M123.47,369.83c0,.85.71,1.54,1.58,1.54s1.58-.69,1.58-1.54-.71-1.54-1.58-1.54-1.58.69-1.58,1.54Z"/><path class="cls-5" d="M108.01,380.95c.44-.74.18-1.68-.58-2.1-.76-.42-1.72-.17-2.16.56s-.18,1.68.58,2.1c.76.42,1.72.17,2.16-.56Z"/><path class="cls-5" d="M113.93,359.21c.45,2.14,1.26,4.41.13,6.31-.47.8-.92,1.06-1.29,1.1-.36-.04-.81-.3-1.29-1.1-1.13-1.9-.32-4.18.13-6.31.45-2.14-1.85-3.68-2.5-.19-.58,3.14-.97,3.01-.97,3.01,0,0-.08.39-3.16-.68-3.42-1.2-3.2,1.51-1.08,2.2,2.12.69,4.55,1.14,5.68,3.05.47.8.48,1.31.33,1.63-.21.29-.67.54-1.62.54-2.26,0-3.87-1.82-5.55-3.27-1.68-1.45-4.2-.28-1.42,2.01,2.5,2.06,2.19,2.32,2.19,2.32,0,0,.31.26-2.19,2.32-2.78,2.29-.26,3.46,1.42,2.01,1.68-1.45,3.29-3.27,5.55-3.27.95,0,1.4.25,1.62.54.15.32.14.83-.33,1.63-1.13,1.9-3.55,2.35-5.68,3.05-2.12.69-2.35,3.4,1.08,2.2,3.08-1.08,3.16-.68,3.16-.68,0,0,.39-.13.97,3.01.65,3.49,2.94,1.95,2.5-.19-.45-2.14-1.26-4.41-.13-6.31.47-.8.92-1.06,1.29-1.1.36.04.81.3,1.29,1.1,1.13,1.9.32,4.18-.13,6.31-.45,2.14,1.85,3.68,2.5.19.58-3.14.97-3.01.97-3.01,0,0,.08-.39,3.16.68,3.42,1.2,3.2-1.51,1.08-2.2-2.12-.69-4.55-1.14-5.68-3.05-.47-.8-.48-1.31-.33-1.63.21-.29.67-.54,1.62-.54,2.26,0,3.87,1.82,5.55,3.27,1.68,1.45,4.2.28,1.42-2.01-2.5-2.06-2.19-2.32-2.19-2.32,0,0-.31-.26,2.19-2.32,2.78-2.29.26-3.46-1.42-2.01-1.68,1.45-3.29,3.27-5.55,3.27-.95,0-1.4-.25-1.62-.54-.15-.32-.14-.83.33-1.63,1.13-1.9,3.55-2.35,5.68-3.05,2.12-.69,2.35-3.4-1.08-2.2-3.08,1.08-3.16.68-3.16.68,0,0-.39.13-.97-3.01-.65-3.49-2.94-1.95-2.5.19Z"/><path class="cls-5" d="M117.55,358.7c-.44.74-.18,1.68.58,2.1.76.42,1.72.17,2.16-.56.44-.74.18-1.68-.58-2.1-.76-.42-1.72-.17-2.16.56Z"/><path class="cls-5" d="M108.01,358.7c-.44-.74-1.4-.99-2.16-.56-.76.42-1.01,1.37-.58,2.1s1.4.99,2.16.56c.75-.42,1.01-1.37.58-2.1Z"/><path class="cls-5" d="M117.55,380.95c.44.74,1.4.99,2.16.56.76-.42,1.01-1.37.58-2.1-.44-.74-1.4-.99-2.16-.56-.76.42-1.01,1.37-.58,2.1Z"/><path class="cls-5" d="M143.34,372.12c-2.45,1.05,1.06,5.21,1.06,5.27-1.52-.32-6.15-1.87-8.6-3.87-2.45-2-6.81-1.74-6.88,0-.07,1.74,1.72,1.29,3.9,1.55,1.29.15,2.85.91,3.92,1.51-2.27.54-7.67,2.01-6.83,3.67,1.06,2.08,3.31-.08,5.29-.99,1.27-.58,3.23-.31,4.49-.04-.78.36-1.42.94-1.18,1.85.53,2,3.77-.45,6.02-.87,2.25-.42,5.39,0,5.39,0v-2.28c-1.69,0-4.79-.97-4.79-2.96s-.46-3.35-1.79-2.82Z"/><ellipse class="cls-5" cx="126.63" cy="380.48" rx="1.58" ry="1.54"/><path class="cls-5" d="M138.58,368.29c-.87,0-1.58.69-1.58,1.54s.71,1.54,1.58,1.54,1.58-.69,1.58-1.54-.71-1.54-1.58-1.54Z"/><path class="cls-5" d="M134.21,368.74c-.62,0-1.12.49-1.12,1.09s.5,1.09,1.12,1.09,1.12-.49,1.12-1.09-.5-1.09-1.12-1.09Z"/><path class="cls-5" d="M138.51,358.6c-.24.91.41,1.49,1.18,1.85-1.26.27-3.22.53-4.49-.04-1.98-.9-4.23-3.07-5.29-.99-.84,1.65,4.57,3.13,6.83,3.67-1.07.6-2.63,1.36-3.92,1.51-2.18.26-3.97-.19-3.9,1.55s4.43,2,6.88,0c2.45-2,7.08-3.54,8.6-3.87,0,.06-3.51,4.22-1.06,5.27,1.32.53,1.79-.82,1.79-2.82s3.11-2.96,4.79-2.96v-2.28s-3.14.42-5.39,0c-2.25-.42-5.49-2.87-6.02-.87Z"/><path class="cls-5" d="M148.58,369.83c0,2.04-2.46,3.63-1.34,4.85,1.12,1.22,2.68-1.93,2.68-1.93v-2.91h0v-2.92s-1.55-3.16-2.68-1.93c-1.12,1.22,1.34,2.81,1.34,4.85Z"/><path class="cls-5" d="M83.01,367.54c2.45-1.05-1.06-5.21-1.06-5.27,1.52.32,6.15,1.87,8.6,3.87,2.45,2,6.81,1.74,6.88,0s-1.72-1.29-3.9-1.55c-1.29-.15-2.85-.91-3.92-1.51,2.27-.54,7.67-2.01,6.83-3.67-1.06-2.08-3.31.08-5.29.99-1.27.58-3.23.31-4.49.04.78-.36,1.42-.94,1.18-1.85-.53-2-3.77.45-6.02.87-2.25.42-5.39,0-5.39,0v2.28c1.69,0,4.79.97,4.79,2.96s.46,3.35,1.79,2.82Z"/><ellipse class="cls-5" cx="87.78" cy="369.83" rx="1.58" ry="1.54"/><path class="cls-5" d="M92.14,370.92c.62,0,1.12-.49,1.12-1.09s-.5-1.09-1.12-1.09-1.12.49-1.12,1.09.5,1.09,1.12,1.09Z"/><path class="cls-5" d="M87.84,381.06c.24-.91-.41-1.49-1.18-1.85,1.26-.27,3.22-.53,4.49.04,1.98.9,4.23,3.07,5.29.99.84-1.65-4.57-3.13-6.83-3.67,1.07-.6,2.63-1.36,3.92-1.51,2.18-.26,3.97.19,3.9-1.55-.07-1.74-4.43-2-6.88,0-2.45,2-7.08,3.54-8.6,3.87,0-.06,3.51-4.22,1.06-5.27-1.32-.53-1.79.82-1.79,2.82s-3.11,2.96-4.79,2.96v2.28s3.14-.42,5.39,0c2.25.42,5.49,2.87,6.02.87Z"/><path class="cls-5" d="M77.77,369.83c0-2.04,2.46-3.63,1.34-4.85-1.12-1.22-2.68,1.93-2.68,1.93v2.91h0v2.92s1.55,3.16,2.68,1.93c1.12-1.22-1.34-2.81-1.34-4.85Z"/><rect class="cls-5" x="76.43" y="385.63" width="73.49" height="2"/><rect class="cls-5" x="76.43" y="352.85" width="73.49" height="2"/><path class="cls-5" d="M40.51,355.98c.85-.17,1.54-.93,1.54-1.69s-.69-1.39-1.54-1.4c-.85-.01-1.54.74-1.54,1.69s.69,1.57,1.54,1.4Z"/><path class="cls-5" d="M50.16,369.83c-.38.85.08,1.53,1.02,1.54.94,0,1.87-.69,2.07-1.54.2-.85-.26-1.54-1.02-1.54s-1.69.69-2.07,1.54Z"/><path class="cls-5" d="M29.99,367.3c.85.22,1.59-.59,1.86-1.83.23-1.22-.11-2.47-.88-2.85-.74-.4-1.72.32-2.02,1.69-.33,1.38.23,2.74,1.04,3Z"/><path class="cls-5" d="M51.57,358.27c-.95.98-1.87,2.05-2.8,3.05-.93.99-1.89,1.91-3.02,2.41-.95.41-1.38.3-1.53.06-.09-.29.03-.83.75-1.75.84-1.09,1.91-1.83,2.97-2.51,1.07-.68,2.21-1.31,3.28-2.02,1.07-.72,1.94-1.53,2.14-1.81.19-.29-.29-.11-2.03.79-1.57.82-2.32,1.11-2.68,1.22-.36.11-.33.04-.33.04,0,0-.1.04-.06-.19.04-.23.21-.76.75-1.72.6-1.02.22-1.25-.39-1.2-.61.06-1.46.55-1.81,1.31-.69,1.53-1.14,3.3-3.05,5.37-.8.87-1.29,1.23-1.63,1.3-.3,0-.54-.27-.54-1.14,0-1.04.46-2.15,1.09-3.14.64-1,1.45-1.9,2.18-2.67.72-.77.79-1.45.4-1.76-.4-.29-1.26-.29-2.41,1.02-1.03,1.21-1.61,1.92-1.93,2.21-.32.31-.39.26-.39.26,0,0-.07.1-.39-.05-.32-.16-.9-.53-1.93-1.75-1.14-1.4-2.01-1.53-2.41-.86-.4.64-.33,2.01.4,2.88,1.44,1.78,3.28,2.74,3.31,5,.02.97-.2,1.57-.43,1.95-.27.33-.71.62-1.48.55-1.8-.16-2.72-2.86-3.35-5.53-.35-1.31-1.2-1.97-1.81-1.7-.6.25-1.02,1.6-.36,3.9.62,2.03.98,2.92,1.08,3.45.1.52.03.58.03.58,0,0,.05.11-.24.51-.29.4-.93,1.1-2.26,2.33-1.48,1.37-1.56,2.65-1.01,3.33.54.68,1.62.72,2.34-.22,1.44-1.89,3.14-4.09,5.12-3.98.83.03,1.24.32,1.45.65.15.39.22.98-.03,1.96-.28,1.17-.93,1.98-1.81,2.61-.87.64-1.96,1.07-2.95,1.54-1,.46-1.27,1.63-.77,2.47.5.83,1.73,1.25,3.25.2,1.37-.93,2.13-1.35,2.55-1.5.42-.17.51-.09.51-.09,0,0,.08-.06.53.21.46.26,1.23.82,2.85,1.69,1.84,1.04,3.24.79,3.63.2.41-.59-.02-1.48-1.14-1.99-1.12-.53-2.26-.94-3.12-1.67-.87-.75-1.39-1.8-1.25-2.88.13-.93.49-1.29.83-1.43.38-.08.89.08,1.77.49,1.06.48,1.79.93,2.38,1.53.59.63,1.07,1.47,1.73,2.25.66.78,1.99.9,2.73.51.76-.39.85-1.26-.26-2.42-.96-1.05-1.19-1.61-1.28-1.92-.07-.32.04-.39.04-.39,0,0-.04-.07.35-.39.38-.32,1.22-.9,2.69-1.93,1.59-1.14,1.81-2.01,1.61-2.41-.22-.4-.91-.33-1.86.4-.95.72-2.04,1.54-3.2,2.18-1.15.66-2.39,1.07-3.35.65-.8-.36-.89-.9-.79-1.27.17-.38.64-.83,1.62-1.34,1.17-.63,2.2-.87,3.19-1.17.99-.3,1.9-.66,2.74-.99.85-.35,1.55-1.2,1.76-1.81.2-.61.06-.99-1.1-.39-1.09.57-1.66.63-1.89.6-.23-.04-.16-.14-.16-.14,0,0-.08.01.13-.37.21-.39.69-1.17,1.9-2.72,1.34-1.72,1.65-2.26,1.36-2.17-.28.1-1.22.75-2.18,1.72Z"/><path class="cls-5" d="M52.98,358.58c-.7.66-1.39,1.62-1.37,2.14.02.52.7.26,1.33-.47.63-.74,1.06-1.68,1.12-2.1.05-.42-.37-.22-1.08.44Z"/><path class="cls-5" d="M51.64,355.92c.74-.54.99-.9.56-.95-.42-.05-1.37.15-2.1.6-.74.45-.99,1.05-.56,1.19.42.15,1.37-.3,2.1-.84Z"/><path class="cls-5" d="M37.4,378.39c.07.92,1.2,1.78,2.41,1.72,1.25-.05,2.09-.85,1.93-1.65-.18-.79-1.15-1.3-2.33-1.39-1.16-.09-2.08.4-2,1.32Z"/><path class="cls-5" d="M69.85,372.12c-1.22.52-.96,1.82-.39,3,.29.59.65,1.15.94,1.56.15.21.27.38.36.5.09.12.15.19.15.2-1.52-.32-6.15-1.87-8.6-3.87-1.22-1-2.93-1.43-4.33-1.4-1.44.03-2.8.53-2.94,1.4-.15.87.35,1.19,1.24,1.33.22.03.47.06.74.07.24.01.5.02.77.04.47.02.99.04,1.54.11,1.29.15,2.85.91,3.92,1.51-1.13.27-3.05.77-4.58,1.42-.38.16-.74.33-1.06.51-.34.18-.84.36-1.14.55-.65.38-.97.78-.67,1.19.38.52.93.78,1.56.85.48.08.86-.03,1.35-.22.94-.39,2-1.16,2.99-1.61,1.27-.58,3.23-.31,4.49-.04-.78.36-1.42.94-1.18,1.85.53,2,3.77-.45,6.02-.87,2.25-.42,5.39,0,5.39,0v-2.28c-1.69,0-4.79-.97-4.79-2.96s-.46-3.35-1.79-2.82Z"/><path class="cls-5" d="M50.96,378.94c-1.3,0-2.59.69-2.89,1.52-.31.86.64,1.56,2.12,1.55,1.48,0,2.77-.69,2.89-1.54.12-.85-.83-1.54-2.12-1.54Z"/><ellipse class="cls-5" cx="65.09" cy="369.83" rx="1.58" ry="1.54"/><path class="cls-5" d="M60.72,368.74c-.62,0-1.12.49-1.12,1.09s.5,1.09,1.12,1.09,1.12-.49,1.12-1.09-.5-1.09-1.12-1.09Z"/><path class="cls-5" d="M65.02,358.6c-.24.91.41,1.49,1.18,1.85-1.26.27-3.22.53-4.49-.04-.99-.45-2.05-1.22-2.99-1.61-.45-.2-.96-.3-1.25-.22-.13.08-.25.33-.38.85-.11.41-.07.82.1,1.19.04.09.1.19.16.28.08.09.07.18.27.27.32.18.67.35,1.06.51,1.53.64,3.45,1.15,4.58,1.41-1.07.6-2.63,1.36-3.92,1.51-.55.06-1.07.08-1.54.11-.11,0-.22.01-.33.02-.08,0-.15.01-.22.02-.14.02-.28.04-.4.07-.49.14-.84.46-.92,1.33-.06.87.71,1.37,2.06,1.4,1.41.03,3.11-.4,4.33-1.4,2.45-2,7.08-3.54,8.6-3.87,0,0-.05.08-.15.2-.09.12-.21.3-.36.5-.29.42-.65.97-.94,1.56-.57,1.18-.84,2.48.39,3,1.32.53,1.79-.82,1.79-2.82s3.11-2.96,4.79-2.96v-2.28s-3.14.42-5.39,0c-2.25-.42-5.49-2.87-6.02-.87Z"/><path class="cls-5" d="M75.09,369.83c0,2.04-2.46,3.63-1.34,4.85,1.12,1.22,2.68-1.93,2.68-1.93v-2.91h0v-2.92s-1.55-3.16-2.68-1.93c-1.12,1.22,1.34,2.81,1.34,4.85Z"/><path class="cls-5" d="M42.8,336.99c.52,1.22,1.82.96,3,.39.59-.29,1.15-.65,1.56-.94.21-.15.38-.27.5-.36.12-.09.19-.15.2-.15-.32,1.52-1.87,6.15-3.87,8.6-2,2.45-1.74,6.81,0,6.88,1.74.07,1.29-1.72,1.55-3.9.15-1.29.91-2.85,1.51-3.92.54,2.27,2.01,7.67,3.67,6.83,2.08-1.06-.08-3.31-.99-5.29-.58-1.27-.31-3.23-.04-4.49.36.78.94,1.42,1.85,1.18,2-.53-.45-3.77-.87-6.02-.42-2.25,0-5.39,0-5.39h-2.28c0,1.69-.97,4.79-2.96,4.79s-3.35.46-2.82,1.79Z"/><path class="cls-5" d="M38.97,341.76c0,.87.69,1.58,1.54,1.58s1.54-.71,1.54-1.58-.69-1.58-1.54-1.58-1.54.71-1.54,1.58Z"/><path class="cls-5" d="M39.42,346.12c0,.62.49,1.12,1.09,1.12s1.09-.5,1.09-1.12-.49-1.12-1.09-1.12-1.09.5-1.09,1.12Z"/><path class="cls-5" d="M29.28,341.82c.91.24,1.49-.41,1.85-1.18.27,1.26.53,3.22-.04,4.49-.9,1.98-3.07,4.23-.99,5.29,1.65.84,3.13-4.57,3.67-6.83.6,1.07,1.36,2.63,1.51,3.92.26,2.18-.19,3.97,1.55,3.9,1.74-.07,2-4.43,0-6.88-2-2.45-3.54-7.08-3.87-8.6,0,0,.08.05.2.15.12.09.3.22.5.36.42.29.97.65,1.56.94,1.18.57,2.48.84,3-.39.53-1.32-.82-1.79-2.82-1.79s-2.96-3.11-2.96-4.79h-2.28s.42,3.14,0,5.39c-.42,2.25-2.87,5.49-.87,6.02Z"/><path class="cls-5" d="M40.51,331.75c2.04,0,3.63,2.46,4.85,1.34,1.22-1.12-1.93-2.68-1.93-2.68h-5.83s-3.16,1.55-1.93,2.68c1.22,1.12,2.81-1.34,4.85-1.34Z"/><path class="cls-5" d="M76.43,385.63v2h-26.99c-3.06.03-6.17,0-8.84-.69-.65-.19-1.32-.35-1.95-.55l-1.77-.7c-1.14-.49-2.22-1.05-3.33-1.78-2.22-1.43-4.31-3.36-5.94-5.52-.82-1.08-1.53-2.2-2.12-3.34-.6-1.15-1.09-2.23-1.49-3.51-.85-2.47-1.32-5.38-1.3-8.45v-32.68h2v32.1c-.02,2.89.39,5.65,1.15,8.01.35,1.22.78,2.27,1.33,3.37.54,1.09,1.2,2.17,1.96,3.2,1.52,2.06,3.51,3.9,5.65,5.22,1.07.68,2.12,1.18,3.21,1.61l1.7.62c.6.18,1.24.33,1.85.49,2.54.62,5.46.63,8.35.61h26.53Z"/><path class="cls-5" d="M76.43,352.85v2h-19.93c-.17,0-.36.02-.52-.03-.17-.06-.31-.18-.39-.34-.16-.32-.07-.69-.09-1.04v-23.02h2v22.43h18.94Z"/><path class="cls-5" d="M40.51,282.57c.85,0,1.54-.71,1.54-1.58s-.69-1.58-1.54-1.58-1.54.71-1.54,1.58.69,1.58,1.54,1.58Z"/><path class="cls-5" d="M40.51,303.96c-.85,0-1.54.71-1.54,1.58s.69,1.58,1.54,1.58,1.54-.71,1.54-1.58-.69-1.58-1.54-1.58Z"/><path class="cls-5" d="M29.38,288.5c.74.44,1.68.18,2.1-.58.42-.76.17-1.72-.56-2.16-.74-.44-1.68-.18-2.1.58-.42.76-.17,1.72.56,2.16Z"/><path class="cls-5" d="M51.13,294.42c-2.14.45-4.41,1.26-6.31.13-.8-.47-1.06-.92-1.1-1.29.04-.36.3-.81,1.1-1.29,1.9-1.13,4.18-.32,6.31.13,2.14.45,3.68-1.85.19-2.5-3.14-.58-3.01-.97-3.01-.97,0,0-.39-.08.68-3.16,1.2-3.42-1.51-3.2-2.2-1.08-.69,2.12-1.14,4.55-3.05,5.68-.8.47-1.31.48-1.63.33-.29-.21-.54-.67-.54-1.62,0-2.26,1.82-3.87,3.27-5.55,1.45-1.68.28-4.2-2.01-1.42-2.06,2.5-2.32,2.19-2.32,2.19,0,0-.26.31-2.32-2.19-2.29-2.78-3.46-.26-2.01,1.42,1.45,1.68,3.27,3.29,3.27,5.55,0,.95-.25,1.41-.54,1.62-.32.15-.83.14-1.63-.33-1.9-1.13-2.35-3.55-3.05-5.68-.69-2.12-3.4-2.35-2.2,1.08,1.08,3.08.68,3.16.68,3.16,0,0,.13.39-3.01.97-3.49.65-1.95,2.94.19,2.5,2.14-.45,4.41-1.26,6.31-.13.8.47,1.06.92,1.1,1.29-.04.36-.3.81-1.1,1.29-1.9,1.13-4.18.32-6.31-.13-2.14-.45-3.68,1.85-.19,2.5,3.14.58,3.01.97,3.01.97,0,0,.39.08-.68,3.16-1.2,3.42,1.51,3.2,2.2,1.08.69-2.12,1.14-4.55,3.05-5.68.8-.47,1.31-.48,1.63-.33.29.21.54.67.54,1.62,0,2.26-1.82,3.87-3.27,5.55-1.45,1.68-.28,4.2,2.01,1.42,2.06-2.5,2.32-2.19,2.32-2.19,0,0,.26-.31,2.32,2.19,2.29,2.78,3.46.26,2.01-1.42-1.45-1.68-3.27-3.29-3.27-5.55,0-.95.25-1.4.54-1.62.32-.15.83-.14,1.63.33,1.9,1.13,2.35,3.55,3.05,5.68.69,2.12,3.4,2.35,2.2-1.08-1.08-3.08-.68-3.16-.68-3.16,0,0-.13-.39,3.01-.97,3.49-.65,1.95-2.94-.19-2.5Z"/><path class="cls-5" d="M51.64,298.04c-.74-.44-1.68-.18-2.1.58-.42.76-.17,1.72.56,2.16.74.44,1.68.18,2.1-.58.42-.76.17-1.72-.56-2.16Z"/><path class="cls-5" d="M51.64,288.5c.74-.44.99-1.4.56-2.16-.42-.76-1.37-1.01-2.1-.58-.74.44-.99,1.4-.56,2.16.42.76,1.37,1.01,2.1.58Z"/><path class="cls-5" d="M29.38,298.04c-.74.44-.99,1.4-.56,2.16.42.76,1.37,1.01,2.1.58.74-.44.99-1.4.56-2.16-.42-.76-1.37-1.01-2.1-.58Z"/><path class="cls-5" d="M38.22,323.83c-1.05-2.45-5.21,1.06-5.27,1.06.32-1.52,1.87-6.15,3.87-8.6,2-2.45,1.74-6.81,0-6.88-1.74-.07-1.29,1.72-1.55,3.9-.15,1.29-.91,2.86-1.51,3.92-.54-2.27-2.01-7.67-3.67-6.83-2.08,1.06.08,3.31.99,5.29.58,1.27.31,3.23.04,4.49-.36-.78-.94-1.42-1.85-1.18-2,.53.45,3.77.87,6.02.42,2.25,0,5.39,0,5.39h2.28c0-1.69.97-4.79,2.96-4.79s3.35-.46,2.82-1.79Z"/><path class="cls-5" d="M31.4,307.12c0-.87-.69-1.58-1.54-1.58s-1.54.71-1.54,1.58.69,1.58,1.54,1.58,1.54-.71,1.54-1.58Z"/><path class="cls-5" d="M42.05,319.07c0-.87-.69-1.58-1.54-1.58s-1.54.71-1.54,1.58.69,1.58,1.54,1.58,1.54-.71,1.54-1.58Z"/><path class="cls-5" d="M41.6,314.7c0-.62-.49-1.12-1.09-1.12s-1.09.5-1.09,1.12.49,1.12,1.09,1.12,1.09-.5,1.09-1.12Z"/><path class="cls-5" d="M51.74,319c-.91-.24-1.49.41-1.85,1.18-.27-1.26-.53-3.22.04-4.49.9-1.98,3.07-4.23.99-5.29-1.65-.84-3.13,4.57-3.67,6.83-.6-1.07-1.36-2.63-1.51-3.92-.26-2.18.19-3.97-1.55-3.9-1.74.07-2,4.43,0,6.88,2,2.45,3.54,7.08,3.87,8.6-.06,0-4.22-3.51-5.27-1.06-.53,1.32.82,1.79,2.82,1.79s2.96,3.11,2.96,4.79h2.28s-.42-3.14,0-5.39c.42-2.25,2.87-5.49.87-6.02Z"/><path class="cls-5" d="M40.51,329.07c-2.04,0-3.63-2.46-4.85-1.34-1.22,1.12,1.93,2.68,1.93,2.68h5.83s3.16-1.55,1.93-2.68c-1.22-1.12-2.81,1.34-4.85,1.34Z"/><path class="cls-5" d="M42.8,263.5c1.05,2.45,5.21-1.06,5.27-1.06-.32,1.52-1.87,6.15-3.87,8.6-2,2.45-1.74,6.81,0,6.88,1.74.07,1.29-1.72,1.55-3.9.15-1.29.91-2.85,1.51-3.92.54,2.27,2.01,7.67,3.67,6.83,2.08-1.06-.08-3.31-.99-5.29-.58-1.27-.31-3.23-.04-4.49.36.78.94,1.42,1.85,1.18,2-.53-.45-3.77-.87-6.02-.42-2.25,0-5.39,0-5.39h-2.28c0,1.69-.97,4.79-2.96,4.79s-3.35.46-2.82,1.79Z"/><ellipse class="cls-5" cx="40.51" cy="268.27" rx="1.54" ry="1.58"/><path class="cls-5" d="M39.42,272.63c0,.62.49,1.12,1.09,1.12s1.09-.5,1.09-1.12-.49-1.12-1.09-1.12-1.09.5-1.09,1.12Z"/><path class="cls-5" d="M29.28,268.33c.91.24,1.49-.41,1.85-1.18.27,1.26.53,3.22-.04,4.49-.9,1.98-3.07,4.23-.99,5.29,1.65.84,3.13-4.57,3.67-6.83.6,1.07,1.36,2.63,1.51,3.92.26,2.18-.19,3.97,1.55,3.9,1.74-.07,2-4.43,0-6.88-2-2.45-3.54-7.08-3.87-8.6.06,0,4.22,3.51,5.27,1.06.53-1.32-.82-1.79-2.82-1.79s-2.96-3.11-2.96-4.79h-2.28s.42,3.14,0,5.39c-.42,2.25-2.87,5.49-.87,6.02Z"/><path class="cls-5" d="M40.51,258.26c2.04,0,3.63,2.46,4.85,1.34,1.22-1.12-1.93-2.68-1.93-2.68h-5.83s-3.16,1.55-1.93,2.68c1.22,1.12,2.81-1.34,4.85-1.34Z"/><rect class="cls-5" x="22.71" y="256.92" width="2" height="73.49"/><rect class="cls-5" x="55.49" y="256.92" width="2" height="73.49"/><path class="cls-5" d="M40.51,209.08c.85,0,1.54-.71,1.54-1.58s-.69-1.58-1.54-1.58-1.54.71-1.54,1.58.69,1.58,1.54,1.58Z"/><path class="cls-5" d="M40.51,230.47c-.85,0-1.54.71-1.54,1.58s.69,1.58,1.54,1.58,1.54-.71,1.54-1.58-.69-1.58-1.54-1.58Z"/><path class="cls-5" d="M29.38,215.01c.74.44,1.68.18,2.1-.58.42-.76.17-1.72-.56-2.16-.74-.44-1.68-.18-2.1.58-.42.76-.17,1.72.56,2.16Z"/><path class="cls-5" d="M51.13,220.93c-2.14.45-4.41,1.26-6.31.13-.8-.47-1.06-.92-1.1-1.29.04-.36.3-.81,1.1-1.29,1.9-1.13,4.18-.32,6.31.13,2.14.45,3.68-1.85.19-2.5-3.14-.58-3.01-.97-3.01-.97,0,0-.39-.08.68-3.16,1.2-3.42-1.51-3.2-2.2-1.08-.69,2.12-1.14,4.55-3.05,5.68-.8.47-1.31.48-1.63.33-.29-.21-.54-.67-.54-1.62,0-2.26,1.82-3.87,3.27-5.55,1.45-1.68.28-4.2-2.01-1.42-2.06,2.5-2.32,2.19-2.32,2.19,0,0-.26.31-2.32-2.19-2.29-2.78-3.46-.26-2.01,1.42,1.45,1.68,3.27,3.29,3.27,5.55,0,.95-.25,1.4-.54,1.62-.32.15-.83.14-1.63-.33-1.9-1.13-2.35-3.55-3.05-5.68-.69-2.12-3.4-2.35-2.2,1.08,1.08,3.08.68,3.16.68,3.16,0,0,.13.39-3.01.97-3.49.65-1.95,2.94.19,2.5,2.14-.45,4.41-1.26,6.31-.13.8.47,1.06.92,1.1,1.29-.04.36-.3.81-1.1,1.29-1.9,1.13-4.18.32-6.31-.13-2.14-.45-3.68,1.85-.19,2.5,3.14.58,3.01.97,3.01.97,0,0,.39.08-.68,3.16-1.2,3.42,1.51,3.2,2.2,1.08.69-2.12,1.14-4.55,3.05-5.68.8-.47,1.31-.48,1.63-.33.29.21.54.67.54,1.62,0,2.26-1.82,3.87-3.27,5.55-1.45,1.68-.28,4.2,2.01,1.42,2.06-2.5,2.32-2.19,2.32-2.19,0,0,.26-.31,2.32,2.19,2.29,2.78,3.46.26,2.01-1.42-1.45-1.68-3.27-3.29-3.27-5.55,0-.95.25-1.4.54-1.62.32-.15.83-.14,1.63.33,1.9,1.13,2.35,3.55,3.05,5.68.69,2.12,3.4,2.35,2.2-1.08-1.08-3.08-.68-3.16-.68-3.16,0,0-.13-.39,3.01-.97,3.49-.65,1.95-2.94-.19-2.5Z"/><path class="cls-5" d="M51.64,224.55c-.74-.44-1.68-.18-2.1.58-.42.76-.17,1.72.56,2.16.74.44,1.68.18,2.1-.58.42-.76.17-1.72-.56-2.16Z"/><path class="cls-5" d="M51.64,215.01c.74-.44.99-1.4.56-2.16-.42-.76-1.37-1.01-2.1-.58s-.99,1.4-.56,2.16c.42.76,1.37,1.01,2.1.58Z"/><path class="cls-5" d="M29.38,224.55c-.74.44-.99,1.4-.56,2.16.42.76,1.37,1.01,2.1.58.74-.44.99-1.4.56-2.16-.42-.76-1.37-1.01-2.1-.58Z"/><path class="cls-5" d="M38.22,250.34c-1.05-2.45-5.21,1.06-5.27,1.06.32-1.52,1.87-6.15,3.87-8.6,2-2.45,1.74-6.81,0-6.88-1.74-.07-1.29,1.72-1.55,3.9-.15,1.29-.91,2.85-1.51,3.92-.54-2.27-2.01-7.67-3.67-6.83-2.08,1.06.08,3.31.99,5.29.58,1.27.31,3.23.04,4.49-.36-.78-.94-1.42-1.85-1.18-2,.53.45,3.77.87,6.02.42,2.25,0,5.39,0,5.39h2.28c0-1.69.97-4.79,2.96-4.79s3.35-.46,2.82-1.79Z"/><path class="cls-5" d="M31.4,233.63c0-.87-.69-1.58-1.54-1.58s-1.54.71-1.54,1.58.69,1.58,1.54,1.58,1.54-.71,1.54-1.58Z"/><path class="cls-5" d="M42.05,245.58c0-.87-.69-1.58-1.54-1.58s-1.54.71-1.54,1.58.69,1.58,1.54,1.58,1.54-.71,1.54-1.58Z"/><path class="cls-5" d="M41.6,241.21c0-.62-.49-1.12-1.09-1.12s-1.09.5-1.09,1.12.49,1.12,1.09,1.12,1.09-.5,1.09-1.12Z"/><path class="cls-5" d="M51.74,245.51c-.91-.24-1.49.41-1.85,1.18-.27-1.26-.53-3.22.04-4.49.9-1.98,3.07-4.23.99-5.29-1.65-.84-3.13,4.57-3.67,6.83-.6-1.07-1.36-2.63-1.51-3.92-.26-2.18.19-3.97-1.55-3.9-1.74.07-2,4.43,0,6.88,2,2.45,3.54,7.08,3.87,8.6-.06,0-4.22-3.51-5.27-1.06-.53,1.32.82,1.79,2.82,1.79s2.96,3.11,2.96,4.79h2.28s-.42-3.14,0-5.39c.42-2.25,2.87-5.49.87-6.02Z"/><path class="cls-5" d="M40.51,255.58c-2.04,0-3.63-2.46-4.85-1.34-1.22,1.12,1.93,2.68,1.93,2.68h5.83s3.16-1.55,1.93-2.68c-1.22-1.12-2.81,1.34-4.85,1.34Z"/><path class="cls-5" d="M42.8,190.01c1.05,2.45,5.21-1.06,5.27-1.06-.32,1.52-1.87,6.15-3.87,8.6-2,2.45-1.74,6.81,0,6.88,1.74.07,1.29-1.72,1.55-3.9.15-1.29.91-2.85,1.51-3.92.54,2.27,2.01,7.67,3.67,6.83,2.08-1.06-.08-3.31-.99-5.29-.58-1.27-.31-3.23-.04-4.49.36.78.94,1.42,1.85,1.18,2-.53-.45-3.77-.87-6.02-.42-2.25,0-5.39,0-5.39h-2.28c0,1.69-.97,4.79-2.96,4.79s-3.35.46-2.82,1.79Z"/><path class="cls-5" d="M38.97,194.78c0,.87.69,1.58,1.54,1.58s1.54-.71,1.54-1.58-.69-1.58-1.54-1.58-1.54.71-1.54,1.58Z"/><ellipse class="cls-5" cx="40.51" cy="199.14" rx="1.09" ry="1.12"/><path class="cls-5" d="M29.28,194.84c.91.24,1.49-.41,1.85-1.18.27,1.26.53,3.22-.04,4.49-.9,1.98-3.07,4.23-.99,5.29,1.65.84,3.13-4.57,3.67-6.83.6,1.07,1.36,2.63,1.51,3.92.26,2.18-.19,3.97,1.55,3.9,1.74-.07,2-4.43,0-6.88-2-2.45-3.54-7.08-3.87-8.6.06,0,4.22,3.51,5.27,1.06.53-1.32-.82-1.79-2.82-1.79s-2.96-3.11-2.96-4.79h-2.28s.42,3.14,0,5.39c-.42,2.25-2.87,5.49-.87,6.02Z"/><path class="cls-5" d="M40.51,184.77c2.04,0,3.63,2.46,4.85,1.34,1.22-1.12-1.93-2.68-1.93-2.68h-5.83s-3.16,1.55-1.93,2.68c1.22,1.12,2.81-1.34,4.85-1.34Z"/><rect class="cls-5" x="22.71" y="183.43" width="2" height="73.49"/><rect class="cls-5" x="55.49" y="183.43" width="2" height="73.49"/><path class="cls-5" d="M40.51,135.59c.85,0,1.54-.71,1.54-1.58s-.69-1.58-1.54-1.58-1.54.71-1.54,1.58.69,1.58,1.54,1.58Z"/><path class="cls-5" d="M40.51,156.98c-.85,0-1.54.71-1.54,1.58s.69,1.58,1.54,1.58,1.54-.71,1.54-1.58-.69-1.58-1.54-1.58Z"/><path class="cls-5" d="M29.38,141.52c.74.44,1.68.18,2.1-.58.42-.76.17-1.72-.56-2.16-.74-.44-1.68-.18-2.1.58-.42.76-.17,1.72.56,2.16Z"/><path class="cls-5" d="M51.13,147.44c-2.14.45-4.41,1.26-6.31.13-.8-.47-1.06-.92-1.1-1.29.04-.36.3-.81,1.1-1.29,1.9-1.13,4.18-.32,6.31.13,2.14.45,3.68-1.85.19-2.5-3.14-.58-3.01-.97-3.01-.97,0,0-.39-.08.68-3.16,1.2-3.42-1.51-3.2-2.2-1.08-.69,2.12-1.14,4.55-3.05,5.68-.8.47-1.31.48-1.63.33-.29-.21-.54-.67-.54-1.62,0-2.26,1.82-3.87,3.27-5.55,1.45-1.68.28-4.2-2.01-1.42-2.06,2.5-2.32,2.19-2.32,2.19,0,0-.26.31-2.32-2.19-2.29-2.78-3.46-.26-2.01,1.42,1.45,1.68,3.27,3.29,3.27,5.55,0,.95-.25,1.4-.54,1.62-.32.15-.83.14-1.63-.33-1.9-1.13-2.35-3.55-3.05-5.68-.69-2.12-3.4-2.35-2.2,1.08,1.08,3.08.68,3.16.68,3.16,0,0,.13.39-3.01.97-3.49.65-1.95,2.94.19,2.5,2.14-.45,4.41-1.26,6.31-.13.8.47,1.06.92,1.1,1.29-.04.36-.3.81-1.1,1.29-1.9,1.13-4.18.32-6.31-.13-2.14-.45-3.68,1.85-.19,2.5,3.14.58,3.01.97,3.01.97,0,0,.39.08-.68,3.16-1.2,3.42,1.51,3.2,2.2,1.08.69-2.12,1.14-4.55,3.05-5.68.8-.47,1.31-.48,1.63-.33.29.21.54.67.54,1.62,0,2.26-1.82,3.87-3.27,5.55-1.45,1.68-.28,4.2,2.01,1.42,2.06-2.5,2.32-2.19,2.32-2.19,0,0,.26-.31,2.32,2.19,2.29,2.78,3.46.26,2.01-1.42-1.45-1.68-3.27-3.29-3.27-5.55,0-.95.25-1.4.54-1.62.32-.15.83-.14,1.63.33,1.9,1.13,2.35,3.55,3.05,5.68.69,2.12,3.4,2.35,2.2-1.08-1.08-3.08-.68-3.16-.68-3.16,0,0-.13-.39,3.01-.97,3.49-.65,1.95-2.94-.19-2.5Z"/><path class="cls-5" d="M51.64,151.06c-.74-.44-1.68-.18-2.1.58-.42.76-.17,1.72.56,2.16.74.44,1.68.18,2.1-.58.42-.76.17-1.72-.56-2.16Z"/><path class="cls-5" d="M51.64,141.52c.74-.44.99-1.4.56-2.16-.42-.76-1.37-1.01-2.1-.58-.74.44-.99,1.4-.56,2.16.42.76,1.37,1.01,2.1.58Z"/><path class="cls-5" d="M29.38,151.06c-.74.44-.99,1.4-.56,2.16.42.76,1.37,1.01,2.1.58.74-.44.99-1.4.56-2.16-.42-.76-1.37-1.01-2.1-.58Z"/><path class="cls-5" d="M38.22,176.85c-1.05-2.45-5.21,1.06-5.27,1.06.32-1.52,1.87-6.15,3.87-8.6,2-2.45,1.74-6.81,0-6.88-1.74-.07-1.29,1.72-1.55,3.9-.15,1.29-.91,2.86-1.51,3.92-.54-2.27-2.01-7.67-3.67-6.83-2.08,1.06.08,3.31.99,5.29.58,1.27.31,3.23.04,4.49-.36-.78-.94-1.42-1.85-1.18-2,.53.45,3.77.87,6.02.42,2.25,0,5.39,0,5.39h2.28c0-1.69.97-4.79,2.96-4.79s3.35-.46,2.82-1.79Z"/><path class="cls-5" d="M31.4,160.14c0-.87-.69-1.58-1.54-1.58s-1.54.71-1.54,1.58.69,1.58,1.54,1.58,1.54-.71,1.54-1.58Z"/><path class="cls-5" d="M42.05,172.09c0-.87-.69-1.58-1.54-1.58s-1.54.71-1.54,1.58.69,1.58,1.54,1.58,1.54-.71,1.54-1.58Z"/><path class="cls-5" d="M41.6,167.72c0-.62-.49-1.12-1.09-1.12s-1.09.5-1.09,1.12.49,1.12,1.09,1.12,1.09-.5,1.09-1.12Z"/><path class="cls-5" d="M51.74,172.02c-.91-.24-1.49.41-1.85,1.18-.27-1.26-.53-3.22.04-4.49.9-1.98,3.07-4.23.99-5.29-1.65-.84-3.13,4.57-3.67,6.83-.6-1.07-1.36-2.63-1.51-3.92-.26-2.18.19-3.97-1.55-3.9-1.74.07-2,4.43,0,6.88,2,2.45,3.54,7.08,3.87,8.6-.06,0-4.22-3.51-5.27-1.06-.53,1.32.82,1.79,2.82,1.79s2.96,3.11,2.96,4.79h2.28s-.42-3.14,0-5.39c.42-2.25,2.87-5.49.87-6.02Z"/><path class="cls-5" d="M40.51,182.09c-2.04,0-3.63-2.46-4.85-1.34-1.22,1.12,1.93,2.68,1.93,2.68h5.83s3.16-1.55,1.93-2.68c-1.22-1.12-2.81,1.34-4.85,1.34Z"/><path class="cls-5" d="M42.8,116.52c1.05,2.45,5.21-1.06,5.27-1.06-.32,1.52-1.87,6.15-3.87,8.6-2,2.45-1.74,6.81,0,6.88,1.74.07,1.29-1.72,1.55-3.9.15-1.29.91-2.86,1.51-3.92.54,2.27,2.01,7.67,3.67,6.83,2.08-1.06-.08-3.31-.99-5.29-.58-1.27-.31-3.23-.04-4.49.36.78.94,1.42,1.85,1.18,2-.53-.45-3.77-.87-6.02-.42-2.25,0-5.39,0-5.39h-2.28c0,1.69-.97,4.79-2.96,4.79s-3.35.46-2.82,1.79Z"/><ellipse class="cls-5" cx="40.51" cy="121.29" rx="1.54" ry="1.58"/><ellipse class="cls-5" cx="40.51" cy="125.65" rx="1.09" ry="1.12"/><path class="cls-5" d="M29.28,121.35c.91.24,1.49-.41,1.85-1.18.27,1.26.53,3.22-.04,4.49-.9,1.98-3.07,4.23-.99,5.29,1.65.84,3.13-4.57,3.67-6.83.6,1.07,1.36,2.63,1.51,3.92.26,2.18-.19,3.97,1.55,3.9,1.74-.07,2-4.43,0-6.88-2-2.45-3.54-7.08-3.87-8.6.06,0,4.22,3.51,5.27,1.06.53-1.32-.82-1.79-2.82-1.79s-2.96-3.11-2.96-4.79h-2.28s.42,3.14,0,5.39c-.42,2.25-2.87,5.49-.87,6.02Z"/><path class="cls-5" d="M40.51,111.28c2.04,0,3.63,2.46,4.85,1.34,1.22-1.12-1.93-2.68-1.93-2.68h-5.83s-3.16,1.55-1.93,2.68c1.22,1.12,2.81-1.34,4.85-1.34Z"/><rect class="cls-5" x="22.71" y="109.94" width="2" height="73.49"/><rect class="cls-5" x="55.49" y="109.94" width="2" height="73.49"/><path class="cls-5" d="M40.51,62.1c.85,0,1.54-.71,1.54-1.58s-.69-1.58-1.54-1.58-1.54.71-1.54,1.58.69,1.58,1.54,1.58Z"/><path class="cls-5" d="M40.51,83.49c-.85,0-1.54.71-1.54,1.58s.69,1.58,1.54,1.58,1.54-.71,1.54-1.58-.69-1.58-1.54-1.58Z"/><path class="cls-5" d="M29.38,68.02c.74.44,1.68.18,2.1-.58.42-.76.17-1.72-.56-2.16-.74-.44-1.68-.18-2.1.58-.42.76-.17,1.72.56,2.16Z"/><path class="cls-5" d="M51.13,73.95c-2.14.45-4.41,1.26-6.31.13-.8-.47-1.06-.92-1.1-1.29.04-.36.3-.81,1.1-1.29,1.9-1.13,4.18-.32,6.31.13,2.14.45,3.68-1.85.19-2.5-3.14-.58-3.01-.97-3.01-.97,0,0-.39-.08.68-3.16,1.2-3.42-1.51-3.2-2.2-1.08-.69,2.12-1.14,4.55-3.05,5.68-.8.47-1.31.48-1.63.33-.29-.21-.54-.67-.54-1.62,0-2.26,1.82-3.87,3.27-5.55,1.45-1.68.28-4.2-2.01-1.42-2.06,2.5-2.32,2.19-2.32,2.19,0,0-.26.31-2.32-2.19-2.29-2.78-3.46-.26-2.01,1.42,1.45,1.68,3.27,3.29,3.27,5.55,0,.95-.25,1.41-.54,1.62-.32.15-.83.14-1.63-.33-1.9-1.13-2.35-3.55-3.05-5.68-.69-2.12-3.4-2.35-2.2,1.08,1.08,3.08.68,3.16.68,3.16,0,0,.13.39-3.01.97-3.49.65-1.95,2.94.19,2.5,2.14-.45,4.41-1.26,6.31-.13.8.47,1.06.92,1.1,1.29-.04.36-.3.81-1.1,1.29-1.9,1.13-4.18.32-6.31-.13-2.14-.45-3.68,1.85-.19,2.5,3.14.58,3.01.97,3.01.97,0,0,.39.08-.68,3.16-1.2,3.42,1.51,3.2,2.2,1.08.69-2.12,1.14-4.55,3.05-5.68.8-.47,1.31-.48,1.63-.33.29.21.54.67.54,1.62,0,2.26-1.82,3.87-3.27,5.55-1.45,1.68-.28,4.2,2.01,1.42,2.06-2.5,2.32-2.19,2.32-2.19,0,0,.26-.31,2.32,2.19,2.29,2.78,3.46.26,2.01-1.42-1.45-1.68-3.27-3.29-3.27-5.55,0-.95.25-1.4.54-1.62.32-.15.83-.14,1.63.33,1.9,1.13,2.35,3.55,3.05,5.68.69,2.12,3.4,2.35,2.2-1.08-1.08-3.08-.68-3.16-.68-3.16,0,0-.13-.39,3.01-.97,3.49-.65,1.95-2.94-.19-2.5Z"/><path class="cls-5" d="M51.64,77.57c-.74-.44-1.68-.18-2.1.58-.42.76-.17,1.72.56,2.16.74.44,1.68.18,2.1-.58.42-.76.17-1.72-.56-2.16Z"/><path class="cls-5" d="M51.64,68.02c.74-.44.99-1.4.56-2.16-.42-.76-1.37-1.01-2.1-.58-.74.44-.99,1.4-.56,2.16.42.76,1.37,1.01,2.1.58Z"/><path class="cls-5" d="M29.38,77.57c-.74.44-.99,1.4-.56,2.16.42.76,1.37,1.01,2.1.58.74-.44.99-1.4.56-2.16-.42-.76-1.37-1.01-2.1-.58Z"/><path class="cls-5" d="M38.22,103.36c-.52-1.22-1.82-.96-3-.39-.59.29-1.15.65-1.56.94-.21.15-.38.27-.5.36-.12.09-.19.15-.2.15.32-1.52,1.87-6.15,3.87-8.6,2-2.45,1.74-6.81,0-6.88-1.74-.07-1.29,1.72-1.55,3.9-.15,1.29-.91,2.85-1.51,3.92-.54-2.27-2.01-7.67-3.67-6.83-2.08,1.06.08,3.31.99,5.29.58,1.27.31,3.23.04,4.49-.36-.78-.94-1.42-1.85-1.18-2,.53.45,3.77.87,6.02.42,2.25,0,5.39,0,5.39h2.28c0-1.69.97-4.79,2.96-4.79s3.35-.46,2.82-1.79Z"/><path class="cls-5" d="M31.4,86.65c0-.87-.69-1.58-1.54-1.58s-1.54.71-1.54,1.58.69,1.58,1.54,1.58,1.54-.71,1.54-1.58Z"/><path class="cls-5" d="M42.05,98.6c0-.87-.69-1.58-1.54-1.58s-1.54.71-1.54,1.58.69,1.58,1.54,1.58,1.54-.71,1.54-1.58Z"/><path class="cls-5" d="M41.6,94.23c0-.62-.49-1.12-1.09-1.12s-1.09.5-1.09,1.12.49,1.12,1.09,1.12,1.09-.5,1.09-1.12Z"/><path class="cls-5" d="M51.74,98.53c-.91-.24-1.49.41-1.85,1.18-.27-1.26-.53-3.22.04-4.49.9-1.98,3.07-4.23.99-5.29-1.65-.84-3.13,4.57-3.67,6.83-.6-1.07-1.36-2.63-1.51-3.92-.26-2.18.19-3.97-1.55-3.9-1.74.07-2,4.43,0,6.88,2,2.45,3.54,7.08,3.87,8.6,0,0-.08-.05-.2-.15-.12-.09-.3-.21-.5-.36-.42-.29-.97-.65-1.56-.94-1.18-.57-2.48-.84-3,.39-.53,1.32.82,1.79,2.82,1.79s2.96,3.11,2.96,4.79h2.28s-.42-3.14,0-5.39c.42-2.25,2.87-5.49.87-6.02Z"/><path class="cls-5" d="M40.51,108.6c-2.04,0-3.63-2.46-4.85-1.34-1.22,1.12,1.93,2.68,1.93,2.68h5.83s3.16-1.55,1.93-2.68c-1.22-1.12-2.81,1.34-4.85,1.34Z"/><path class="cls-5" d="M43.41,45.32c.03.68.42,1.21.95,1.63.53.42,1.17.74,1.82,1.03.63.27,1.27.54,1.76.74.48.2.8.35.82.36-.39.18-1.28.56-1.99,1.15-.69.57-1.57,1.33-2.57,1.9-1,.55-1.43,1.94-1.4,3.13.03,1.22.53,2.1,1.4,2.2.43.02.73-.08.94-.27.21-.15.32-.34.39-.58.14-.48.09-1.16.22-1.88.15-.86.91-1.64,1.51-2,.27.79.77,2.06,1.41,2.94.64.9,1.42,1.37,2.25,1.23,1.04-.16,1.02-.37.63-.76-.39-.38-1.16-.98-1.61-1.58-.58-.76-.31-1.61-.04-1.98.36.57.94,1.11,1.85,1.51,1,.44.87.16.48-.47-.39-.62-.92-1.65-.84-2.18.06-.53.51-.87.95-.94.44-.08.81.04.81.04l-1.5-2.28c-.43,0-1.21-.11-2.08-.29-.87-.19-1.86-.48-2.76-1.37-1.76-1.79-3.34-2.72-3.4-1.27Z"/><path class="cls-5" d="M39.04,47.23c-.03.92.61,1.96,1.47,2.33.85.37,1.54.05,1.54-.71s-.69-1.82-1.54-2.37c-.84-.54-1.41-.15-1.47.75Z"/><path class="cls-5" d="M39.42,51.97c0,.65.49,1.28,1.09,1.4.6.13,1.09-.22,1.09-.78s-.49-1.18-1.09-1.4c-.6-.22-1.09.13-1.09.78Z"/><path class="cls-5" d="M29.94,42.43c.78.78,1.52.18,2.07-.63-.17,1.75-.31,4.55-.91,6.27-.5,1.32-1.23,2.8-1.64,4.26-.39,1.45-.41,2.85.63,3.73.83.68,1.61-1.08,2.25-3.16.65-2.11,1.1-4.61,1.54-5.95.43,1.65,1.24,3.95,1.38,5.61.26,2.79-.19,5.13,1.55,4.91.87.01,1.37-1.26,1.4-2.79.04-1.55-.42-3.5-1.38-5.32-.96-1.81-1.64-4.41-1.83-6.71-.2-2.32.59-4.38,1.11-5.25,0,0,.01.11.03.29.02.18.04.42.09.71.1.58.28,1.33.59,2.01.29.67.71,1.29,1.14,1.6.44.32.89.35,1.39-.07,1.11-.87.55-2.12-.88-3.55-.71-.69-.58-1.96.17-3.08.73-1.12,2.05-1.96,3.05-2.2l-1.3-1.99s-.23.11-.62.28c-.39.18-.95.46-1.59.84-.64.38-1.34.87-2.04,1.41-.69.55-1.36,1.14-1.97,1.69-.59.52-1.27,1.13-1.97,1.75-.66.62-1.28,1.27-1.76,1.91-.93,1.25-1.35,2.59-.51,3.45Z"/><path class="cls-5" d="M45.06,40.34c.74,1.01.87,2.05,1.16,3,.29.96.68,1.73,1.52,2.13.83.41.86-.2.8-.89-.04-.36-.11-.72-.16-1-.06-.29-.11-.49-.11-.49l-1.91-2.91h0s-1.7-2.59-1.7-2.59c0,0-.22-.16-.55-.37-.33-.21-.79-.48-1.27-.65-.95-.39-2.01-.42-2.19.41-.18.81.64,1.13,1.6,1.5,1,.41,2.09.88,2.81,1.86Z"/><path class="cls-5" d="M24.71,109.94h-2v-62.05c0-1.53.02-3.06.18-4.52.35-2.92,1.15-5.5,2.22-7.7,1.1-2.27,2.67-4.55,4.61-6.48,1.93-1.94,4.24-3.53,6.43-4.56l1.14,1.74c-2.12.91-4.33,2.4-6.17,4.24-1.84,1.84-3.3,4.02-4.29,6.21-.96,2.12-1.66,4.58-1.97,7.34-.15,1.37-.17,2.82-.16,4.26v61.51Z"/><path class="cls-5" d="M57.49,109.94h-2v-54.11c.02-.35.33-.68.69-.67l1.31,2v52.78Z"/><path class="cls-5" d="M93.93,40.18c0,.85.71,1.54,1.58,1.54s1.58-.69,1.58-1.54-.71-1.54-1.58-1.54-1.58.69-1.58,1.54Z"/><path class="cls-5" d="M72.53,40.18c0-.85-.71-1.54-1.58-1.54s-1.58.69-1.58,1.54.71,1.54,1.58,1.54,1.58-.69,1.58-1.54Z"/><path class="cls-5" d="M88,29.05c-.44.74-.18,1.68.58,2.1.76.42,1.72.17,2.16-.56.44-.74.18-1.68-.58-2.1-.76-.42-1.72-.17-2.16.56Z"/><path class="cls-5" d="M82.08,50.8c-.45-2.14-1.26-4.41-.13-6.31.47-.8.92-1.06,1.29-1.1.36.04.81.3,1.29,1.1,1.13,1.9.32,4.18-.13,6.31-.45,2.14,1.85,3.68,2.5.19.58-3.14.97-3.01.97-3.01,0,0,.08-.39,3.16.68,3.42,1.2,3.2-1.51,1.08-2.2-2.12-.69-4.55-1.14-5.68-3.05-.47-.8-.48-1.31-.33-1.63.21-.29.67-.54,1.62-.54,2.26,0,3.87,1.82,5.55,3.27,1.68,1.45,4.2.28,1.42-2.01-2.5-2.06-2.19-2.32-2.19-2.32,0,0-.31-.26,2.19-2.32,2.78-2.29.26-3.46-1.42-2.01-1.68,1.45-3.29,3.27-5.55,3.27-.95,0-1.4-.25-1.62-.54-.15-.32-.14-.83.33-1.63,1.13-1.9,3.55-2.35,5.68-3.05,2.12-.69,2.35-3.4-1.08-2.2-3.08,1.08-3.16.68-3.16.68,0,0-.39.13-.97-3.01-.65-3.49-2.94-1.95-2.5.19.45,2.14,1.26,4.41.13,6.31-.47.8-.92,1.06-1.29,1.1-.36-.04-.81-.3-1.29-1.1-1.13-1.9-.32-4.18.13-6.31.45-2.14-1.85-3.68-2.5-.19-.58,3.14-.97,3.01-.97,3.01,0,0-.08.39-3.16-.68-3.42-1.2-3.2,1.51-1.08,2.2,2.12.69,4.55,1.14,5.68,3.05.47.8.48,1.31.33,1.63-.21.29-.67.54-1.62.54-2.26,0-3.87-1.82-5.55-3.27-1.68-1.45-4.2-.28-1.42,2.01,2.5,2.06,2.19,2.32,2.19,2.32,0,0,.31.26-2.19,2.32-2.78,2.29-.26,3.46,1.42,2.01,1.68-1.45,3.29-3.27,5.55-3.27.95,0,1.4.25,1.62.54.15.32.14.83-.33,1.63-1.13,1.9-3.55,2.35-5.68,3.05-2.12.69-2.35,3.4,1.08,2.2,3.08-1.08,3.16-.68,3.16-.68,0,0,.39-.13.97,3.01.65,3.49,2.94,1.95,2.5-.19Z"/><path class="cls-5" d="M78.46,51.31c.44-.74.18-1.68-.58-2.1-.76-.42-1.72-.17-2.16.56-.44.74-.18,1.68.58,2.1.76.42,1.72.17,2.16-.56Z"/><path class="cls-5" d="M88,51.31c.44.74,1.4.99,2.16.56.76-.42,1.01-1.37.58-2.1-.44-.74-1.4-.99-2.16-.56-.76.42-1.01,1.37-.58,2.1Z"/><path class="cls-5" d="M78.46,29.05c-.44-.74-1.4-.99-2.16-.56-.76.42-1.01,1.37-.58,2.1.44.74,1.4.99,2.16.56.76-.42,1.01-1.37.58-2.1Z"/><path class="cls-5" d="M52.14,37.89c1.21-.52.7-1.82-.34-3-.51-.59-1.16-1.15-1.68-1.56-.26-.21-.5-.38-.66-.5-.17-.12-.27-.19-.27-.2,1.12.15,3.44.62,5.72,1.3.57.17,1.14.35,1.69.55l.81.3c.24.1.42.21.63.32.8.43,1.55.9,2.16,1.4,2.45,2,6.81,1.74,6.88,0,.07-1.74-1.72-1.29-3.9-1.55-1.29-.15-2.85-.91-3.92-1.51,2.27-.54,7.67-2.01,6.83-3.67-1.06-2.08-3.31.08-5.29.99-.63.29-1.44.37-2.25.34-.2,0-.4-.02-.6-.04-.22-.02-.44-.05-.65-.07-.57-.05-1.12-.12-1.6-.19,1.16-.36,2.14-.94,1.79-1.85-.42-1-2.05-.89-3.9-.47-1.86.42-3.89,1.11-5.55,1.36-1.7.21-3.63.53-5.13.77-1.44.29-2.5.5-2.5.5l1.3,1.99c.5-.13,1.18-.2,1.89-.23.72-.02,1.54.06,2.28.2,1.54.33,2.84,1.02,3.22,2.03.78,1.99,1.76,3.32,3.04,2.79Z"/><ellipse class="cls-5" cx="69.38" cy="29.53" rx="1.58" ry="1.54"/><path class="cls-5" d="M57.44,41.72c.86,0,1.58-.69,1.57-1.54,0-.85-.7-1.54-1.58-1.54-.94,0-1.63.69-1.54,1.54.09.85.79,1.54,1.55,1.54Z"/><path class="cls-5" d="M61.79,41.27c.62,0,1.12-.49,1.12-1.09s-.5-1.09-1.12-1.09-1.12.49-1.12,1.09.5,1.09,1.12,1.09Z"/><path class="cls-5" d="M57.49,51.41c.13-.91-.17-1.49-.52-1.85.13-.07.29-.13.46-.19.02-.01.11-.03.22-.04l.3-.03c.2-.02.4-.03.6-.04.81-.03,1.62.05,2.25.34,1.98.9,4.23,3.07,5.29.99.84-1.65-4.57-3.13-6.83-3.67,1.07-.6,2.63-1.36,3.92-1.51,2.18-.26,3.97.19,3.9-1.55-.07-1.74-4.43-2-6.88,0-.61.5-1.36.97-2.16,1.4-.19.11-.42.21-.59.32l-.4.3c-.25.18-.51.37-.75.55-.95.68-1.64,1.14-2,1.31,0-.02.02-.29.06-.7.04-.43.09-1,.15-1.56.07-1.18.09-2.48-1.09-3-1.31-.53-1.23.82-.44,2.82.37,1,.17,1.74-.13,2.23-.31.49-.77.73-1.2.73l1.5,2.28s.23-.11.62-.16c.38-.05.93-.05,1.44.16.52.21,1.18.93,1.58,1.34.41.42.62.53.72-.47Z"/><path class="cls-5" d="M47.66,40.18c-.59-1-.41-1.81-.28-2.62.12-.79.21-1.52-.75-2.04-.97-.52-1.54.05-1.77.7-.25.65-.21,1.37-.21,1.37l1.7,2.59h0s1.91,2.92,1.91,2.92c0,0,.84.79,1.6,1.43.78.64,1.46,1.12,1.53.51.09-.61-.46-1.31-1.27-2.12-.8-.8-1.87-1.71-2.48-2.73Z"/><path class="cls-5" d="M112.99,42.46c-1.22.52-.96,1.82-.39,3,.29.59.65,1.15.94,1.56.15.21.27.38.36.5.09.12.15.19.15.2-1.52-.32-6.15-1.87-8.6-3.87-2.45-2-6.81-1.74-6.88,0-.07,1.74,1.72,1.29,3.9,1.55,1.29.15,2.86.91,3.92,1.51-2.27.54-7.67,2.01-6.83,3.67,1.06,2.08,3.31-.08,5.29-.99,1.27-.58,3.23-.31,4.49-.04-.78.36-1.42.94-1.18,1.85.53,2,3.77-.45,6.02-.87,2.25-.42,5.39,0,5.39,0v-2.28c-1.69,0-4.79-.97-4.79-2.96s-.46-3.35-1.79-2.82Z"/><ellipse class="cls-5" cx="108.23" cy="40.18" rx="1.58" ry="1.54"/><path class="cls-5" d="M103.87,39.09c-.62,0-1.12.49-1.12,1.09s.5,1.09,1.12,1.09,1.12-.49,1.12-1.09-.5-1.09-1.12-1.09Z"/><path class="cls-5" d="M108.17,28.95c-.24.91.41,1.49,1.18,1.85-1.26.27-3.22.53-4.49-.04-1.98-.9-4.23-3.07-5.29-.99-.84,1.65,4.57,3.13,6.83,3.67-1.07.6-2.63,1.36-3.92,1.51-2.18.26-3.97-.19-3.9,1.55.07,1.74,4.43,2,6.88,0,2.45-2,7.08-3.54,8.6-3.87,0,0-.05.08-.15.2-.09.12-.21.3-.36.5-.29.42-.65.97-.94,1.56-.57,1.18-.84,2.48.39,3,1.32.53,1.79-.82,1.79-2.82s3.11-2.96,4.79-2.96v-2.28s-3.14.42-5.39,0c-2.25-.42-5.49-2.87-6.02-.87Z"/><path class="cls-5" d="M118.24,40.18c0,2.04-2.46,3.63-1.34,4.85,1.12,1.22,2.68-1.93,2.68-1.93v-2.91h0v-2.92s-1.55-3.16-2.68-1.93c-1.12,1.22,1.34,2.81,1.34,4.85Z"/><path class="cls-5" d="M37.3,26.37l-1.14-1.74c2.23-1.01,4.8-1.85,7.75-2.14l2.25-.12h73.42v2H46.81l-2.12.1c-2.79.26-5.24,1-7.39,1.89Z"/><polygon class="cls-5" points="57.49 57.16 56.18 55.16 119.58 55.16 119.58 57.16 57.49 57.16"/><path class="cls-5" d="M167.42,40.18c0,.85.71,1.54,1.58,1.54s1.58-.69,1.58-1.54-.71-1.54-1.58-1.54-1.58.69-1.58,1.54Z"/><path class="cls-5" d="M146.02,40.18c0-.85-.71-1.54-1.58-1.54s-1.58.69-1.58,1.54.71,1.54,1.58,1.54,1.58-.69,1.58-1.54Z"/><path class="cls-5" d="M161.49,29.05c-.44.74-.18,1.68.58,2.1.76.42,1.72.17,2.16-.56.44-.74.18-1.68-.58-2.1-.76-.42-1.72-.17-2.16.56Z"/><path class="cls-5" d="M155.57,50.8c-.45-2.14-1.26-4.41-.13-6.31.47-.8.92-1.06,1.29-1.1.36.04.81.3,1.29,1.1,1.13,1.9.32,4.18-.13,6.31-.45,2.14,1.85,3.68,2.5.19.58-3.14.97-3.01.97-3.01,0,0,.08-.39,3.16.68,3.42,1.2,3.2-1.51,1.08-2.2-2.12-.69-4.55-1.14-5.68-3.05-.47-.8-.48-1.31-.33-1.63.21-.29.67-.54,1.62-.54,2.26,0,3.87,1.82,5.55,3.27,1.68,1.45,4.2.28,1.42-2.01-2.5-2.06-2.19-2.32-2.19-2.32,0,0-.31-.26,2.19-2.32,2.78-2.29.26-3.46-1.42-2.01-1.68,1.45-3.29,3.27-5.55,3.27-.95,0-1.4-.25-1.62-.54-.15-.32-.14-.83.33-1.63,1.13-1.9,3.55-2.35,5.68-3.05,2.12-.69,2.35-3.4-1.08-2.2-3.08,1.08-3.16.68-3.16.68,0,0-.39.13-.97-3.01-.65-3.49-2.94-1.95-2.5.19.45,2.14,1.26,4.41.13,6.31-.47.8-.92,1.06-1.29,1.1-.36-.04-.81-.3-1.29-1.1-1.13-1.9-.32-4.18.13-6.31.45-2.14-1.85-3.68-2.5-.19-.58,3.14-.97,3.01-.97,3.01,0,0-.08.39-3.16-.68-3.42-1.2-3.2,1.51-1.08,2.2,2.12.69,4.55,1.14,5.68,3.05.47.8.48,1.31.33,1.63-.21.29-.67.54-1.62.54-2.26,0-3.87-1.82-5.55-3.27-1.68-1.45-4.2-.28-1.42,2.01,2.5,2.06,2.19,2.32,2.19,2.32,0,0,.31.26-2.19,2.32-2.78,2.29-.26,3.46,1.42,2.01,1.68-1.45,3.29-3.27,5.55-3.27.95,0,1.4.25,1.62.54.15.32.14.83-.33,1.63-1.13,1.9-3.55,2.35-5.68,3.05-2.12.69-2.35,3.4,1.08,2.2,3.08-1.08,3.16-.68,3.16-.68,0,0,.39-.13.97,3.01.65,3.49,2.94,1.95,2.5-.19Z"/><path class="cls-5" d="M151.95,51.31c.44-.74.18-1.68-.58-2.1-.76-.42-1.72-.17-2.16.56-.44.74-.18,1.68.58,2.1.76.42,1.72.17,2.16-.56Z"/><path class="cls-5" d="M161.49,51.31c.44.74,1.4.99,2.16.56.76-.42,1.01-1.37.58-2.1-.44-.74-1.4-.99-2.16-.56-.76.42-1.01,1.37-.58,2.1Z"/><path class="cls-5" d="M151.95,29.05c-.44-.74-1.4-.99-2.16-.56-.76.42-1.01,1.37-.58,2.1.44.74,1.4.99,2.16.56.76-.42,1.01-1.37.58-2.1Z"/><path class="cls-5" d="M126.16,37.89c2.45-1.05-1.06-5.21-1.06-5.27,1.52.32,6.15,1.87,8.6,3.87,2.45,2,6.81,1.74,6.88,0,.07-1.74-1.72-1.29-3.9-1.55-1.29-.15-2.85-.91-3.92-1.51,2.27-.54,7.67-2.01,6.83-3.67-1.06-2.08-3.31.08-5.29.99-1.27.58-3.23.31-4.49.04.78-.36,1.42-.94,1.18-1.85-.53-2-3.77.45-6.02.87-2.25.42-5.39,0-5.39,0v2.28c1.69,0,4.79.97,4.79,2.96s.46,3.35,1.79,2.82Z"/><ellipse class="cls-5" cx="142.87" cy="29.53" rx="1.58" ry="1.54"/><ellipse class="cls-5" cx="130.92" cy="40.18" rx="1.58" ry="1.54"/><ellipse class="cls-5" cx="135.28" cy="40.18" rx="1.12" ry="1.09"/><path class="cls-5" d="M130.99,51.41c.24-.91-.41-1.49-1.18-1.85,1.26-.27,3.22-.53,4.49.04,1.98.9,4.23,3.07,5.29.99.84-1.65-4.57-3.13-6.83-3.67,1.07-.6,2.63-1.36,3.92-1.51,2.18-.26,3.97.19,3.9-1.55-.07-1.74-4.43-2-6.88,0-2.45,2-7.08,3.54-8.6,3.87,0-.06,3.51-4.22,1.06-5.27-1.32-.53-1.79.82-1.79,2.82s-3.11,2.96-4.79,2.96v2.28s3.14-.42,5.39,0c2.25.42,5.49,2.87,6.02.87Z"/><path class="cls-5" d="M120.91,40.18c0-2.04,2.46-3.63,1.34-4.85-1.12-1.22-2.68,1.93-2.68,1.93v2.91h0v2.92s1.55,3.16,2.68,1.93c1.12-1.22-1.34-2.81-1.34-4.85Z"/><path class="cls-5" d="M186.48,42.46c-2.45,1.05,1.06,5.21,1.06,5.27-1.52-.32-6.15-1.87-8.6-3.87-2.45-2-6.81-1.74-6.88,0-.07,1.74,1.72,1.29,3.9,1.55,1.29.15,2.85.91,3.92,1.51-2.27.54-7.67,2.01-6.83,3.67,1.06,2.08,3.31-.08,5.29-.99,1.27-.58,3.23-.31,4.49-.04-.78.36-1.42.94-1.18,1.85.53,2,3.77-.45,6.02-.87,2.25-.42,5.39,0,5.39,0v-2.28c-1.69,0-4.79-.97-4.79-2.96s-.46-3.35-1.79-2.82Z"/><path class="cls-5" d="M181.72,38.64c-.87,0-1.58.69-1.58,1.54s.71,1.54,1.58,1.54,1.58-.69,1.58-1.54-.71-1.54-1.58-1.54Z"/><path class="cls-5" d="M177.36,39.09c-.62,0-1.12.49-1.12,1.09s.5,1.09,1.12,1.09,1.12-.49,1.12-1.09-.5-1.09-1.12-1.09Z"/><path class="cls-5" d="M181.66,28.95c-.24.91.41,1.49,1.18,1.85-1.26.27-3.22.53-4.49-.04-1.98-.9-4.23-3.07-5.29-.99-.84,1.65,4.57,3.13,6.83,3.67-1.07.6-2.63,1.36-3.92,1.51-2.18.26-3.97-.19-3.9,1.55.07,1.74,4.43,2,6.88,0,2.45-2,7.08-3.54,8.6-3.87,0,.06-3.51,4.22-1.06,5.27,1.32.53,1.79-.82,1.79-2.82s3.11-2.96,4.79-2.96v-2.28s-3.14.42-5.39,0c-2.25-.42-5.49-2.87-6.02-.87Z"/><path class="cls-5" d="M191.73,40.18c0,2.04-2.46,3.63-1.34,4.85,1.12,1.22,2.68-1.93,2.68-1.93v-2.91h0v-2.92s-1.55-3.16-2.68-1.93c-1.12,1.22,1.34,2.81,1.34,4.85Z"/><rect class="cls-5" x="119.58" y="22.38" width="73.49" height="2"/><rect class="cls-5" x="119.58" y="55.16" width="73.49" height="2"/><path class="cls-5" d="M228.99,54.02c-.85.17-1.54.93-1.54,1.69s.69,1.39,1.54,1.4c.85.01,1.54-.74,1.54-1.69s-.69-1.57-1.54-1.4Z"/><path class="cls-5" d="M219.34,40.18c.38-.85-.08-1.53-1.02-1.54-.94,0-1.87.69-2.07,1.54-.2.85.26,1.54,1.02,1.54s1.69-.69,2.07-1.54Z"/><path class="cls-5" d="M239.51,42.71c-.85-.22-1.59.59-1.86,1.83-.23,1.22.11,2.47.88,2.85.74.4,1.72-.32,2.02-1.69.33-1.38-.23-2.74-1.04-3Z"/><path class="cls-5" d="M217.93,51.74c.95-.98,1.87-2.05,2.8-3.05.93-.99,1.89-1.91,3.02-2.41.95-.41,1.38-.3,1.53-.06.09.29-.03.83-.75,1.75-.84,1.09-1.91,1.83-2.97,2.51-1.07.68-2.21,1.31-3.28,2.02-1.07.72-1.93,1.53-2.14,1.81-.19.29.29.11,2.03-.79,1.57-.82,2.32-1.11,2.68-1.22.36-.11.33-.04.33-.04,0,0,.1-.04.06.19-.04.23-.21.76-.75,1.72-.6,1.02-.22,1.25.39,1.2.61-.06,1.46-.55,1.81-1.31.69-1.53,1.14-3.3,3.05-5.37.8-.87,1.29-1.23,1.63-1.3.3,0,.54.27.54,1.14,0,1.04-.46,2.15-1.09,3.14-.64,1-1.45,1.9-2.18,2.67-.72.77-.79,1.45-.4,1.76.4.29,1.26.29,2.41-1.02,1.03-1.21,1.61-1.92,1.93-2.21.32-.31.39-.26.39-.26,0,0,.07-.1.39.05.32.16.9.53,1.93,1.75,1.14,1.4,2.01,1.53,2.41.86.4-.64.33-2.01-.4-2.88-1.44-1.78-3.28-2.74-3.31-5-.02-.97.2-1.57.43-1.95.27-.33.71-.62,1.48-.55,1.8.16,2.72,2.86,3.35,5.53.35,1.31,1.2,1.97,1.81,1.7.6-.25,1.02-1.6.36-3.9-.62-2.03-.98-2.92-1.08-3.45-.1-.52-.03-.58-.03-.58,0,0-.05-.11.24-.51.29-.4.93-1.1,2.26-2.33,1.48-1.37,1.56-2.65,1.01-3.33-.54-.68-1.62-.72-2.34.22-1.44,1.89-3.14,4.09-5.12,3.98-.83-.03-1.24-.32-1.45-.65-.15-.39-.22-.98.03-1.96.28-1.17.93-1.98,1.81-2.61.87-.64,1.96-1.07,2.95-1.54,1-.46,1.27-1.63.77-2.47-.5-.83-1.73-1.25-3.25-.2-1.37.93-2.13,1.35-2.55,1.5-.42.17-.51.09-.51.09,0,0-.08.06-.53-.21-.46-.26-1.23-.82-2.85-1.69-1.84-1.04-3.24-.79-3.63-.2-.41.59.02,1.48,1.14,1.99,1.12.53,2.26.94,3.12,1.67.87.75,1.39,1.8,1.25,2.88-.13.93-.49,1.29-.83,1.43-.38.08-.89-.08-1.77-.49-1.06-.48-1.79-.93-2.38-1.53-.59-.63-1.07-1.47-1.73-2.25-.66-.78-1.99-.9-2.73-.51-.76.39-.85,1.26.26,2.42.96,1.05,1.19,1.61,1.28,1.92.07.32-.04.39-.04.39,0,0,.04.07-.35.39-.38.32-1.22.9-2.69,1.93-1.59,1.14-1.81,2.01-1.61,2.41.22.4.91.33,1.86-.4.95-.72,2.04-1.54,3.2-2.18,1.15-.66,2.39-1.07,3.35-.65.8.36.89.9.79,1.27-.17.38-.64.83-1.62,1.34-1.17.63-2.2.87-3.19,1.17-.99.3-1.9.66-2.74.99-.85.35-1.55,1.2-1.76,1.81-.2.61-.06.99,1.1.39,1.09-.57,1.66-.63,1.89-.6.23.04.16.14.16.14,0,0,.08-.01-.13.37-.21.39-.69,1.17-1.9,2.72-1.34,1.72-1.65,2.26-1.36,2.17.28-.1,1.22-.75,2.18-1.72Z"/><path class="cls-5" d="M216.51,51.43c.7-.66,1.39-1.62,1.37-2.14-.02-.52-.7-.26-1.33.47-.63.74-1.06,1.68-1.12,2.1-.05.42.37.22,1.08-.44Z"/><path class="cls-5" d="M217.86,54.08c-.74.54-.99.9-.56.95.42.05,1.37-.15,2.1-.6.74-.45.99-1.05.56-1.19-.42-.15-1.37.3-2.1.84Z"/><path class="cls-5" d="M232.09,31.62c-.07-.92-1.2-1.78-2.41-1.72-1.25.05-2.09.85-1.93,1.65.18.79,1.15,1.3,2.33,1.39,1.16.09,2.08-.4,2-1.32Z"/><path class="cls-5" d="M199.65,37.89c1.22-.52.96-1.82.39-3-.29-.59-.65-1.15-.94-1.56-.15-.21-.27-.38-.36-.5-.09-.12-.15-.19-.15-.2,1.52.32,6.15,1.87,8.6,3.87,1.22,1,2.93,1.43,4.33,1.4,1.44-.03,2.8-.53,2.94-1.4.15-.87-.35-1.19-1.24-1.33-.22-.03-.47-.06-.74-.07-.24-.01-.5-.02-.77-.04-.47-.02-.99-.04-1.54-.11-1.29-.15-2.85-.91-3.92-1.51,1.13-.27,3.05-.77,4.58-1.41.38-.16.74-.33,1.06-.51.34-.18.84-.36,1.14-.55.65-.38.97-.78.67-1.19-.38-.52-.93-.78-1.56-.85-.48-.08-.86.03-1.35.22-.94.39-2,1.16-2.99,1.61-1.27.58-3.23.31-4.49.04.78-.36,1.42-.94,1.18-1.85-.53-2-3.77.45-6.02.87-2.25.42-5.39,0-5.39,0v2.28c1.69,0,4.79.97,4.79,2.96s.46,3.35,1.79,2.82Z"/><path class="cls-5" d="M218.53,31.07c1.3,0,2.59-.69,2.89-1.52.31-.86-.64-1.56-2.12-1.55-1.48,0-2.77.69-2.89,1.54s.83,1.54,2.12,1.54Z"/><ellipse class="cls-5" cx="204.41" cy="40.18" rx="1.58" ry="1.54"/><ellipse class="cls-5" cx="208.77" cy="40.18" rx="1.12" ry="1.09"/><path class="cls-5" d="M204.48,51.41c.24-.91-.41-1.49-1.18-1.85,1.26-.27,3.22-.53,4.49.04.99.45,2.05,1.22,2.99,1.61.45.2.96.3,1.25.22.13-.08.25-.33.38-.85.11-.41.07-.82-.1-1.19-.04-.09-.1-.19-.16-.28-.08-.09-.07-.18-.27-.27-.32-.18-.67-.35-1.06-.51-1.53-.64-3.45-1.15-4.58-1.42,1.07-.6,2.63-1.36,3.92-1.51.55-.06,1.07-.08,1.54-.11.11,0,.22-.01.33-.02.08,0,.15-.01.22-.02.14-.02.28-.04.4-.07.49-.14.84-.46.92-1.33.06-.87-.71-1.37-2.06-1.4-1.41-.03-3.11.4-4.33,1.4-2.45,2-7.08,3.54-8.6,3.87,0,0,.05-.08.15-.2.09-.12.21-.3.36-.5.29-.42.65-.97.94-1.56.57-1.18.84-2.48-.39-3-1.32-.53-1.79.82-1.79,2.82s-3.11,2.96-4.79,2.96v2.28s3.14-.42,5.39,0c2.25.42,5.49,2.87,6.02.87Z"/><path class="cls-5" d="M194.4,40.18c0-2.04,2.46-3.63,1.34-4.85-1.12-1.22-2.68,1.93-2.68,1.93v2.91h0v2.92s1.55,3.16,2.68,1.93c1.12-1.22-1.34-2.81-1.34-4.85Z"/><path class="cls-5" d="M226.7,73.01c-.52-1.22-1.82-.96-3-.39-.59.29-1.15.65-1.56.94-.21.15-.38.27-.5.36-.12.09-.19.15-.2.15.32-1.52,1.87-6.15,3.87-8.6,2-2.45,1.74-6.81,0-6.88-1.74-.07-1.29,1.72-1.55,3.9-.15,1.29-.91,2.85-1.51,3.92-.54-2.27-2.01-7.67-3.67-6.83-2.08,1.06.08,3.31.99,5.29.58,1.27.31,3.23.04,4.49-.36-.78-.94-1.42-1.85-1.18-2,.53.45,3.77.87,6.02.42,2.25,0,5.39,0,5.39h2.28c0-1.69.97-4.79,2.96-4.79s3.35-.46,2.82-1.79Z"/><path class="cls-5" d="M230.53,68.25c0-.87-.69-1.58-1.54-1.58s-1.54.71-1.54,1.58.69,1.58,1.54,1.58,1.54-.71,1.54-1.58Z"/><path class="cls-5" d="M230.08,63.88c0-.62-.49-1.12-1.09-1.12s-1.09.5-1.09,1.12.49,1.12,1.09,1.12,1.09-.5,1.09-1.12Z"/><path class="cls-5" d="M240.22,68.18c-.91-.24-1.49.41-1.85,1.18-.27-1.26-.53-3.22.04-4.49.9-1.98,3.07-4.23.99-5.29-1.65-.84-3.13,4.57-3.67,6.83-.6-1.07-1.36-2.63-1.51-3.92-.26-2.18.19-3.97-1.55-3.9-1.74.07-2,4.43,0,6.88,2,2.45,3.54,7.08,3.87,8.6,0,0-.08-.05-.2-.15-.12-.09-.3-.21-.5-.36-.42-.29-.97-.65-1.56-.94-1.18-.57-2.48-.84-3,.39-.53,1.32.82,1.79,2.82,1.79s2.96,3.11,2.96,4.79h2.28s-.42-3.14,0-5.39c.42-2.25,2.87-5.49.87-6.02Z"/><path class="cls-5" d="M228.99,78.25c-2.04,0-3.63-2.46-4.85-1.34-1.22,1.12,1.93,2.68,1.93,2.68h5.83s3.16-1.55,1.93-2.68c-1.22-1.12-2.81,1.34-4.85,1.34Z"/><path class="cls-5" d="M193.07,24.38v-2h26.99c3.06-.03,6.17,0,8.84.69.65.19,1.32.35,1.95.55l1.77.7c1.14.49,2.22,1.05,3.33,1.78,2.22,1.43,4.31,3.36,5.94,5.52.82,1.08,1.53,2.2,2.12,3.34.6,1.15,1.09,2.23,1.49,3.51.85,2.46,1.32,5.38,1.3,8.45v32.68h-2v-32.1c.02-2.89-.39-5.65-1.15-8.01-.35-1.22-.78-2.27-1.33-3.37-.54-1.09-1.2-2.17-1.96-3.2-1.52-2.06-3.51-3.9-5.65-5.22-1.07-.68-2.12-1.18-3.21-1.61l-1.7-.62c-.6-.18-1.24-.33-1.85-.49-2.54-.62-5.46-.63-8.35-.61h-26.53Z"/><path class="cls-5" d="M193.07,57.16v-2h19.93c.17,0,.36-.02.52.03.17.06.31.18.39.34.16.32.07.69.09,1.04v23.02h-2v-22.43h-18.94Z"/><path class="cls-5" d="M228.99,127.44c-.85,0-1.54.71-1.54,1.58s.69,1.58,1.54,1.58,1.54-.71,1.54-1.58-.69-1.58-1.54-1.58Z"/><path class="cls-5" d="M228.99,106.04c.85,0,1.54-.71,1.54-1.58s-.69-1.58-1.54-1.58-1.54.71-1.54,1.58.69,1.58,1.54,1.58Z"/><path class="cls-5" d="M240.11,121.51c-.74-.44-1.68-.18-2.1.58-.42.76-.17,1.72.56,2.16.74.44,1.68.18,2.1-.58.42-.76.17-1.72-.56-2.16Z"/><path class="cls-5" d="M218.37,115.59c2.14-.45,4.41-1.26,6.31-.13.8.47,1.06.92,1.1,1.29-.04.36-.3.81-1.1,1.29-1.9,1.13-4.18.32-6.31-.13-2.14-.45-3.68,1.85-.19,2.5,3.14.58,3.01.97,3.01.97,0,0,.39.08-.68,3.16-1.2,3.42,1.51,3.2,2.2,1.08.69-2.12,1.14-4.55,3.05-5.68.8-.47,1.31-.48,1.63-.33.29.21.54.67.54,1.62,0,2.26-1.82,3.87-3.27,5.55-1.45,1.68-.28,4.2,2.01,1.42,2.06-2.5,2.32-2.19,2.32-2.19,0,0,.26-.31,2.32,2.19,2.29,2.78,3.46.26,2.01-1.42-1.45-1.68-3.27-3.29-3.27-5.55,0-.95.25-1.41.54-1.62.32-.15.83-.14,1.63.33,1.9,1.13,2.35,3.55,3.05,5.68.69,2.12,3.4,2.35,2.2-1.08-1.08-3.08-.68-3.16-.68-3.16,0,0-.13-.39,3.01-.97,3.49-.65,1.95-2.94-.19-2.5-2.14.45-4.41,1.26-6.31.13-.8-.47-1.06-.92-1.1-1.29.04-.36.3-.81,1.1-1.29,1.9-1.13,4.18-.32,6.31.13s3.68-1.85.19-2.5c-3.14-.58-3.01-.97-3.01-.97,0,0-.39-.08.68-3.16,1.2-3.42-1.51-3.2-2.2-1.08-.69,2.12-1.14,4.55-3.05,5.68-.8.47-1.31.48-1.63.33-.29-.21-.54-.67-.54-1.62,0-2.26,1.82-3.87,3.27-5.55,1.45-1.68.28-4.2-2.01-1.42-2.06,2.5-2.32,2.19-2.32,2.19,0,0-.26.31-2.32-2.19-2.29-2.78-3.46-.26-2.01,1.42,1.45,1.68,3.27,3.29,3.27,5.55,0,.95-.25,1.4-.54,1.62-.32.15-.83.14-1.63-.33-1.9-1.13-2.35-3.55-3.05-5.68-.69-2.12-3.4-2.35-2.2,1.08,1.08,3.08.68,3.16.68,3.16,0,0,.13.39-3.01.97-3.49.65-1.95,2.94.19,2.5Z"/><path class="cls-5" d="M217.86,111.97c.74.44,1.68.18,2.1-.58.42-.76.17-1.72-.56-2.16-.74-.44-1.68-.18-2.1.58-.42.76-.17,1.72.56,2.16Z"/><path class="cls-5" d="M217.86,121.51c-.74.44-.99,1.4-.56,2.16.42.76,1.37,1.01,2.1.58.74-.44.99-1.4.56-2.16-.42-.76-1.37-1.01-2.1-.58Z"/><path class="cls-5" d="M240.11,111.97c.74-.44.99-1.4.56-2.16-.42-.76-1.37-1.01-2.1-.58-.74.44-.99,1.4-.56,2.16.42.76,1.37,1.01,2.1.58Z"/><path class="cls-5" d="M231.28,86.17c1.05,2.45,5.21-1.06,5.27-1.06-.32,1.52-1.87,6.15-3.87,8.6-2,2.45-1.74,6.81,0,6.88,1.74.07,1.29-1.72,1.55-3.9.15-1.29.91-2.85,1.51-3.92.54,2.27,2.01,7.67,3.67,6.83,2.08-1.06-.08-3.31-.99-5.29-.58-1.27-.31-3.23-.04-4.49.36.78.94,1.42,1.85,1.18,2-.53-.45-3.77-.87-6.02-.42-2.25,0-5.39,0-5.39h-2.28c0,1.69-.97,4.79-2.96,4.79s-3.35.46-2.82,1.79Z"/><path class="cls-5" d="M238.1,102.89c0,.87.69,1.58,1.54,1.58s1.54-.71,1.54-1.58-.69-1.58-1.54-1.58-1.54.71-1.54,1.58Z"/><path class="cls-5" d="M227.45,90.94c0,.87.69,1.58,1.54,1.58s1.54-.71,1.54-1.58-.69-1.58-1.54-1.58-1.54.71-1.54,1.58Z"/><ellipse class="cls-5" cx="228.99" cy="95.3" rx="1.09" ry="1.12"/><path class="cls-5" d="M217.76,91c.91.24,1.49-.41,1.85-1.18.27,1.26.53,3.22-.04,4.49-.9,1.98-3.07,4.23-.99,5.29,1.65.84,3.13-4.57,3.67-6.83.6,1.07,1.36,2.63,1.51,3.92.26,2.18-.19,3.97,1.55,3.9,1.74-.07,2-4.43,0-6.88-2-2.45-3.54-7.08-3.87-8.6.06,0,4.22,3.51,5.27,1.06.53-1.32-.82-1.79-2.82-1.79s-2.96-3.11-2.96-4.79h-2.28s.42,3.14,0,5.39c-.42,2.25-2.87,5.49-.87,6.02Z"/><path class="cls-5" d="M228.99,80.93c2.04,0,3.63,2.46,4.85,1.34,1.22-1.12-1.93-2.68-1.93-2.68h-5.83s-3.16,1.55-1.93,2.68c1.22,1.12,2.81-1.34,4.85-1.34Z"/><path class="cls-5" d="M226.7,146.5c-1.05-2.45-5.21,1.06-5.27,1.06.32-1.52,1.87-6.15,3.87-8.6,2-2.45,1.74-6.81,0-6.88-1.74-.07-1.29,1.72-1.55,3.9-.15,1.29-.91,2.85-1.51,3.92-.54-2.27-2.01-7.67-3.67-6.83-2.08,1.06.08,3.31.99,5.29.58,1.27.31,3.23.04,4.49-.36-.78-.94-1.42-1.85-1.18-2,.53.45,3.77.87,6.02.42,2.25,0,5.39,0,5.39h2.28c0-1.69.97-4.79,2.96-4.79s3.35-.46,2.82-1.79Z"/><path class="cls-5" d="M230.53,141.74c0-.87-.69-1.58-1.54-1.58s-1.54.71-1.54,1.58.69,1.58,1.54,1.58,1.54-.71,1.54-1.58Z"/><path class="cls-5" d="M230.08,137.37c0-.62-.49-1.12-1.09-1.12s-1.09.5-1.09,1.12.49,1.12,1.09,1.12,1.09-.5,1.09-1.12Z"/><path class="cls-5" d="M240.22,141.67c-.91-.24-1.49.41-1.85,1.18-.27-1.26-.53-3.22.04-4.49.9-1.98,3.07-4.23.99-5.29-1.65-.84-3.13,4.57-3.67,6.83-.6-1.07-1.36-2.63-1.51-3.92-.26-2.18.19-3.97-1.55-3.9-1.74.07-2,4.43,0,6.88,2,2.45,3.54,7.08,3.87,8.6-.06,0-4.22-3.51-5.27-1.06-.53,1.32.82,1.79,2.82,1.79s2.96,3.11,2.96,4.79h2.28s-.42-3.14,0-5.39c.42-2.25,2.87-5.49.87-6.02Z"/><path class="cls-5" d="M228.99,151.74c-2.04,0-3.63-2.46-4.85-1.34-1.22,1.12,1.93,2.68,1.93,2.68h5.83s3.16-1.55,1.93-2.68c-1.22-1.12-2.81,1.34-4.85,1.34Z"/><rect class="cls-5" x="244.79" y="79.59" width="2" height="73.49"/><rect class="cls-5" x="212.01" y="79.59" width="2" height="73.49"/><path class="cls-5" d="M228.99,200.93c-.85,0-1.54.71-1.54,1.58s.69,1.58,1.54,1.58,1.54-.71,1.54-1.58-.69-1.58-1.54-1.58Z"/><path class="cls-5" d="M228.99,179.53c.85,0,1.54-.71,1.54-1.58s-.69-1.58-1.54-1.58-1.54.71-1.54,1.58.69,1.58,1.54,1.58Z"/><path class="cls-5" d="M240.11,195c-.74-.44-1.68-.18-2.1.58-.42.76-.17,1.72.56,2.16.74.44,1.68.18,2.1-.58.42-.76.17-1.72-.56-2.16Z"/><path class="cls-5" d="M218.37,189.08c2.14-.45,4.41-1.26,6.31-.13.8.47,1.06.92,1.1,1.29-.04.36-.3.81-1.1,1.29-1.9,1.13-4.18.32-6.31-.13-2.14-.45-3.68,1.85-.19,2.5,3.14.58,3.01.97,3.01.97,0,0,.39.08-.68,3.16-1.2,3.42,1.51,3.2,2.2,1.08.69-2.12,1.14-4.55,3.05-5.68.8-.47,1.31-.48,1.63-.33.29.21.54.67.54,1.62,0,2.26-1.82,3.87-3.27,5.55-1.45,1.68-.28,4.2,2.01,1.42,2.06-2.5,2.32-2.19,2.32-2.19,0,0,.26-.31,2.32,2.19,2.29,2.78,3.46.26,2.01-1.42-1.45-1.68-3.27-3.29-3.27-5.55,0-.95.25-1.4.54-1.62.32-.15.83-.14,1.63.33,1.9,1.13,2.35,3.55,3.05,5.68.69,2.12,3.4,2.35,2.2-1.08-1.08-3.08-.68-3.16-.68-3.16,0,0-.13-.39,3.01-.97,3.49-.65,1.95-2.94-.19-2.5-2.14.45-4.41,1.26-6.31.13-.8-.47-1.06-.92-1.1-1.29.04-.36.3-.81,1.1-1.29,1.9-1.13,4.18-.32,6.31.13s3.68-1.85.19-2.5c-3.14-.58-3.01-.97-3.01-.97,0,0-.39-.08.68-3.16,1.2-3.42-1.51-3.2-2.2-1.08-.69,2.12-1.14,4.55-3.05,5.68-.8.47-1.31.48-1.63.33-.29-.21-.54-.67-.54-1.62,0-2.26,1.82-3.87,3.27-5.55,1.45-1.68.28-4.2-2.01-1.42-2.06,2.5-2.32,2.19-2.32,2.19,0,0-.26.31-2.32-2.19-2.29-2.78-3.46-.26-2.01,1.42,1.45,1.68,3.27,3.29,3.27,5.55,0,.95-.25,1.4-.54,1.62-.32.15-.83.14-1.63-.33-1.9-1.13-2.35-3.55-3.05-5.68-.69-2.12-3.4-2.35-2.2,1.08,1.08,3.08.68,3.16.68,3.16,0,0,.13.39-3.01.97-3.49.65-1.95,2.94.19,2.5Z"/><path class="cls-5" d="M217.86,185.46c.74.44,1.68.18,2.1-.58.42-.76.17-1.72-.56-2.16-.74-.44-1.68-.18-2.1.58-.42.76-.17,1.72.56,2.16Z"/><path class="cls-5" d="M217.86,195c-.74.44-.99,1.4-.56,2.16.42.75,1.37,1.01,2.1.58.74-.44.99-1.4.56-2.16-.42-.76-1.37-1.01-2.1-.58Z"/><path class="cls-5" d="M240.11,185.46c.74-.44.99-1.4.56-2.16-.42-.76-1.37-1.01-2.1-.58-.74.44-.99,1.4-.56,2.16.42.76,1.37,1.01,2.1.58Z"/><path class="cls-5" d="M231.28,159.67c1.05,2.45,5.21-1.06,5.27-1.06-.32,1.52-1.87,6.15-3.87,8.6-2,2.45-1.74,6.81,0,6.88,1.74.07,1.29-1.72,1.55-3.9.15-1.29.91-2.85,1.51-3.92.54,2.27,2.01,7.67,3.67,6.83,2.08-1.06-.08-3.31-.99-5.29-.58-1.27-.31-3.23-.04-4.49.36.78.94,1.42,1.85,1.18,2-.53-.45-3.77-.87-6.02-.42-2.25,0-5.39,0-5.39h-2.28c0,1.69-.97,4.79-2.96,4.79s-3.35.46-2.82,1.79Z"/><ellipse class="cls-5" cx="239.64" cy="176.38" rx="1.54" ry="1.58"/><path class="cls-5" d="M227.45,164.43c0,.87.69,1.58,1.54,1.58s1.54-.71,1.54-1.58-.69-1.58-1.54-1.58-1.54.71-1.54,1.58Z"/><ellipse class="cls-5" cx="228.99" cy="168.79" rx="1.09" ry="1.12"/><path class="cls-5" d="M217.76,164.49c.91.24,1.49-.41,1.85-1.18.27,1.26.53,3.22-.04,4.49-.9,1.98-3.07,4.23-.99,5.29,1.65.84,3.13-4.57,3.67-6.83.6,1.07,1.36,2.63,1.51,3.92.26,2.18-.19,3.97,1.55,3.9,1.74-.07,2-4.43,0-6.88-2-2.45-3.54-7.08-3.87-8.6.06,0,4.22,3.51,5.27,1.06.53-1.32-.82-1.79-2.82-1.79s-2.96-3.11-2.96-4.79h-2.28s.42,3.14,0,5.39c-.42,2.25-2.87,5.49-.87,6.02Z"/><path class="cls-5" d="M228.99,154.42c2.04,0,3.63,2.46,4.85,1.34,1.22-1.12-1.93-2.68-1.93-2.68h-5.83s-3.16,1.55-1.93,2.68c1.22,1.12,2.81-1.34,4.85-1.34Z"/><path class="cls-5" d="M226.7,219.99c-1.05-2.45-5.21,1.06-5.27,1.06.32-1.52,1.87-6.15,3.87-8.6,2-2.45,1.74-6.81,0-6.88-1.74-.07-1.29,1.72-1.55,3.9-.15,1.29-.91,2.85-1.51,3.92-.54-2.27-2.01-7.67-3.67-6.83-2.08,1.06.08,3.31.99,5.29.58,1.27.31,3.23.04,4.49-.36-.78-.94-1.42-1.85-1.18-2,.53.45,3.77.87,6.02.42,2.25,0,5.39,0,5.39h2.28c0-1.69.97-4.79,2.96-4.79s3.35-.46,2.82-1.79Z"/><ellipse class="cls-5" cx="228.99" cy="215.23" rx="1.54" ry="1.58"/><path class="cls-5" d="M230.08,210.86c0-.62-.49-1.12-1.09-1.12s-1.09.5-1.09,1.12.49,1.12,1.09,1.12,1.09-.5,1.09-1.12Z"/><path class="cls-5" d="M240.22,215.16c-.91-.24-1.49.41-1.85,1.18-.27-1.26-.53-3.22.04-4.49.9-1.98,3.07-4.23.99-5.29-1.65-.84-3.13,4.57-3.67,6.83-.6-1.07-1.36-2.63-1.51-3.92-.26-2.18.19-3.97-1.55-3.9-1.74.07-2,4.43,0,6.88,2,2.45,3.54,7.08,3.87,8.6-.06,0-4.22-3.51-5.27-1.06-.53,1.32.82,1.79,2.82,1.79s2.96,3.11,2.96,4.79h2.28s-.42-3.14,0-5.39c.42-2.25,2.87-5.49.87-6.02Z"/><path class="cls-5" d="M228.99,225.23c-2.04,0-3.63-2.46-4.85-1.34-1.22,1.12,1.93,2.68,1.93,2.68h5.83s3.16-1.55,1.93-2.68c-1.22-1.12-2.81,1.34-4.85,1.34Z"/><rect class="cls-5" x="244.79" y="153.08" width="2" height="73.49"/><rect class="cls-5" x="212.01" y="153.08" width="2" height="73.49"/><ellipse class="cls-5" cx="228.99" cy="276" rx="1.54" ry="1.58"/><path class="cls-5" d="M228.99,253.02c.85,0,1.54-.71,1.54-1.58s-.69-1.58-1.54-1.58-1.54.71-1.54,1.58.69,1.58,1.54,1.58Z"/><path class="cls-5" d="M240.11,268.49c-.74-.44-1.68-.18-2.1.58-.42.76-.17,1.72.56,2.16.74.44,1.68.18,2.1-.58.42-.76.17-1.72-.56-2.16Z"/><path class="cls-5" d="M218.37,262.57c2.14-.45,4.41-1.26,6.31-.13.8.47,1.06.92,1.1,1.29-.04.36-.3.81-1.1,1.29-1.9,1.13-4.18.32-6.31-.13-2.14-.45-3.68,1.85-.19,2.5,3.14.58,3.01.97,3.01.97,0,0,.39.08-.68,3.16-1.2,3.42,1.51,3.2,2.2,1.08.69-2.12,1.14-4.55,3.05-5.68.8-.47,1.31-.48,1.63-.33.29.21.54.67.54,1.62,0,2.26-1.82,3.87-3.27,5.55-1.45,1.68-.28,4.2,2.01,1.42,2.06-2.5,2.32-2.19,2.32-2.19,0,0,.26-.31,2.32,2.19,2.29,2.78,3.46.26,2.01-1.42-1.45-1.68-3.27-3.29-3.27-5.55,0-.95.25-1.4.54-1.62.32-.15.83-.14,1.63.33,1.9,1.13,2.35,3.55,3.05,5.68.69,2.12,3.4,2.35,2.2-1.08-1.08-3.08-.68-3.16-.68-3.16,0,0-.13-.39,3.01-.97,3.49-.65,1.95-2.94-.19-2.5-2.14.45-4.41,1.26-6.31.13-.8-.47-1.06-.92-1.1-1.29.04-.36.3-.81,1.1-1.29,1.9-1.13,4.18-.32,6.31.13,2.14.45,3.68-1.85.19-2.5-3.14-.58-3.01-.97-3.01-.97,0,0-.39-.08.68-3.16,1.2-3.42-1.51-3.2-2.2-1.08-.69,2.12-1.14,4.55-3.05,5.68-.8.47-1.31.48-1.63.33-.29-.21-.54-.67-.54-1.62,0-2.26,1.82-3.87,3.27-5.55,1.45-1.68.28-4.2-2.01-1.42-2.06,2.5-2.32,2.19-2.32,2.19,0,0-.26.31-2.32-2.19-2.29-2.78-3.46-.26-2.01,1.42,1.45,1.68,3.27,3.29,3.27,5.55,0,.95-.25,1.4-.54,1.62-.32.15-.83.14-1.63-.33-1.9-1.13-2.35-3.55-3.05-5.68-.69-2.12-3.4-2.35-2.2,1.08,1.08,3.08.68,3.16.68,3.16,0,0,.13.39-3.01.97-3.49.65-1.95,2.94.19,2.5Z"/><path class="cls-5" d="M217.86,258.95c.74.44,1.68.18,2.1-.58.42-.76.17-1.72-.56-2.16-.74-.44-1.68-.18-2.1.58-.42.76-.17,1.72.56,2.16Z"/><path class="cls-5" d="M217.86,268.49c-.74.44-.99,1.4-.56,2.16.42.76,1.37,1.01,2.1.58.74-.44.99-1.4.56-2.16-.42-.76-1.37-1.01-2.1-.58Z"/><path class="cls-5" d="M240.11,258.95c.74-.44.99-1.4.56-2.16-.42-.76-1.37-1.01-2.1-.58-.74.44-.99,1.4-.56,2.16.42.76,1.37,1.01,2.1.58Z"/><path class="cls-5" d="M231.28,233.16c1.05,2.45,5.21-1.06,5.27-1.06-.32,1.52-1.87,6.15-3.87,8.6-2,2.45-1.74,6.81,0,6.88,1.74.07,1.29-1.72,1.55-3.9.15-1.29.91-2.85,1.51-3.92.54,2.27,2.01,7.67,3.67,6.83,2.08-1.06-.08-3.31-.99-5.29-.58-1.27-.31-3.23-.04-4.49.36.78.94,1.42,1.85,1.18,2-.53-.45-3.77-.87-6.02-.42-2.25,0-5.39,0-5.39h-2.28c0,1.69-.97,4.79-2.96,4.79s-3.35.46-2.82,1.79Z"/><ellipse class="cls-5" cx="239.64" cy="249.87" rx="1.54" ry="1.58"/><path class="cls-5" d="M227.45,237.92c0,.87.69,1.58,1.54,1.58s1.54-.71,1.54-1.58-.69-1.58-1.54-1.58-1.54.71-1.54,1.58Z"/><ellipse class="cls-5" cx="228.99" cy="242.28" rx="1.09" ry="1.12"/><path class="cls-5" d="M217.76,237.98c.91.24,1.49-.41,1.85-1.18.27,1.26.53,3.22-.04,4.49-.9,1.98-3.07,4.23-.99,5.29,1.65.84,3.13-4.57,3.67-6.83.6,1.07,1.36,2.63,1.51,3.92.26,2.18-.19,3.97,1.55,3.9,1.74-.07,2-4.43,0-6.88-2-2.45-3.54-7.08-3.87-8.6.06,0,4.22,3.51,5.27,1.06.53-1.32-.82-1.79-2.82-1.79s-2.96-3.11-2.96-4.79h-2.28s.42,3.14,0,5.39c-.42,2.25-2.87,5.49-.87,6.02Z"/><path class="cls-5" d="M228.99,227.91c2.04,0,3.63,2.46,4.85,1.34,1.22-1.12-1.93-2.68-1.93-2.68h-5.83s-3.16,1.55-1.93,2.68c1.22,1.12,2.81-1.34,4.85-1.34Z"/><path class="cls-5" d="M226.7,293.48c-1.05-2.45-5.21,1.06-5.27,1.06.32-1.52,1.87-6.15,3.87-8.6,2-2.45,1.74-6.81,0-6.88-1.74-.07-1.29,1.72-1.55,3.9-.15,1.29-.91,2.85-1.51,3.92-.54-2.27-2.01-7.67-3.67-6.83-2.08,1.06.08,3.31.99,5.29.58,1.27.31,3.23.04,4.49-.36-.78-.94-1.42-1.85-1.18-2,.53.45,3.77.87,6.02.42,2.25,0,5.39,0,5.39h2.28c0-1.69.97-4.79,2.96-4.79s3.35-.46,2.82-1.79Z"/><ellipse class="cls-5" cx="228.99" cy="288.72" rx="1.54" ry="1.58"/><path class="cls-5" d="M230.08,284.35c0-.62-.49-1.12-1.09-1.12s-1.09.5-1.09,1.12.49,1.12,1.09,1.12,1.09-.5,1.09-1.12Z"/><path class="cls-5" d="M240.22,288.65c-.91-.24-1.49.41-1.85,1.18-.27-1.26-.53-3.22.04-4.49.9-1.98,3.07-4.23.99-5.29-1.65-.84-3.13,4.57-3.67,6.83-.6-1.07-1.36-2.63-1.51-3.92-.26-2.18.19-3.97-1.55-3.9-1.74.07-2,4.43,0,6.88,2,2.45,3.54,7.08,3.87,8.6-.06,0-4.22-3.51-5.27-1.06-.53,1.32.82,1.79,2.82,1.79s2.96,3.11,2.96,4.79h2.28s-.42-3.14,0-5.39c.42-2.25,2.87-5.49.87-6.02Z"/><path class="cls-5" d="M228.99,298.73c-2.04,0-3.63-2.46-4.85-1.34-1.22,1.12,1.93,2.68,1.93,2.68h5.83s3.16-1.55,1.93-2.68c-1.22-1.12-2.81,1.34-4.85,1.34Z"/><rect class="cls-5" x="244.79" y="226.57" width="2" height="73.49"/><rect class="cls-5" x="212.01" y="226.57" width="2" height="73.49"/><path class="cls-5" d="M228.99,347.91c-.85,0-1.54.71-1.54,1.58s.69,1.58,1.54,1.58,1.54-.71,1.54-1.58-.69-1.58-1.54-1.58Z"/><path class="cls-5" d="M228.99,326.51c.85,0,1.54-.71,1.54-1.58s-.69-1.58-1.54-1.58-1.54.71-1.54,1.58.69,1.58,1.54,1.58Z"/><path class="cls-5" d="M240.11,341.98c-.74-.44-1.68-.18-2.1.58-.42.76-.17,1.72.56,2.16.74.44,1.68.18,2.1-.58.42-.76.17-1.72-.56-2.16Z"/><path class="cls-5" d="M218.37,336.06c2.14-.45,4.41-1.26,6.31-.13.8.47,1.06.92,1.1,1.29-.04.36-.3.81-1.1,1.29-1.9,1.13-4.18.32-6.31-.13-2.14-.45-3.68,1.85-.19,2.5,3.14.58,3.01.97,3.01.97,0,0,.39.08-.68,3.16-1.2,3.42,1.51,3.2,2.2,1.08.69-2.12,1.14-4.55,3.05-5.68.8-.47,1.31-.48,1.63-.33.29.21.54.67.54,1.62,0,2.26-1.82,3.87-3.27,5.55-1.45,1.68-.28,4.2,2.01,1.42,2.06-2.5,2.32-2.19,2.32-2.19,0,0,.26-.31,2.32,2.19,2.29,2.78,3.46.26,2.01-1.42-1.45-1.68-3.27-3.29-3.27-5.55,0-.95.25-1.4.54-1.62.32-.15.83-.14,1.63.33,1.9,1.13,2.35,3.55,3.05,5.68.69,2.12,3.4,2.35,2.2-1.08-1.08-3.08-.68-3.16-.68-3.16,0,0-.13-.39,3.01-.97,3.49-.65,1.95-2.94-.19-2.5-2.14.45-4.41,1.26-6.31.13-.8-.47-1.06-.92-1.1-1.29.04-.36.3-.81,1.1-1.29,1.9-1.13,4.18-.32,6.31.13s3.68-1.85.19-2.5c-3.14-.58-3.01-.97-3.01-.97,0,0-.39-.08.68-3.16,1.2-3.42-1.51-3.2-2.2-1.08-.69,2.12-1.14,4.55-3.05,5.68-.8.47-1.31.48-1.63.33-.29-.21-.54-.67-.54-1.62,0-2.26,1.82-3.87,3.27-5.55,1.45-1.68.28-4.2-2.01-1.42-2.06,2.5-2.32,2.19-2.32,2.19,0,0-.26.31-2.32-2.19-2.29-2.78-3.46-.26-2.01,1.42,1.45,1.68,3.27,3.29,3.27,5.55,0,.95-.25,1.4-.54,1.62-.32.15-.83.14-1.63-.33-1.9-1.13-2.35-3.55-3.05-5.68-.69-2.12-3.4-2.35-2.2,1.08,1.08,3.08.68,3.16.68,3.16,0,0,.13.39-3.01.97-3.49.65-1.95,2.94.19,2.5Z"/><path class="cls-5" d="M217.86,332.44c.74.44,1.68.18,2.1-.58.42-.76.17-1.72-.56-2.16-.74-.44-1.68-.18-2.1.58-.42.76-.17,1.72.56,2.16Z"/><path class="cls-5" d="M217.86,341.98c-.74.44-.99,1.4-.56,2.16.42.75,1.37,1.01,2.1.58.74-.44.99-1.4.56-2.16-.42-.76-1.37-1.01-2.1-.58Z"/><path class="cls-5" d="M240.11,332.44c.74-.44.99-1.4.56-2.16s-1.37-1.01-2.1-.58c-.74.44-.99,1.4-.56,2.16.42.76,1.37,1.01,2.1.58Z"/><path class="cls-5" d="M231.28,306.65c.52,1.22,1.82.96,3,.39.59-.29,1.15-.65,1.56-.94.21-.15.38-.27.5-.36.12-.09.19-.15.2-.15-.32,1.52-1.87,6.15-3.87,8.6-2,2.45-1.74,6.81,0,6.88,1.74.07,1.29-1.72,1.55-3.9.15-1.29.91-2.85,1.51-3.92.54,2.27,2.01,7.67,3.67,6.83,2.08-1.06-.08-3.31-.99-5.29-.58-1.27-.31-3.23-.04-4.49.36.78.94,1.42,1.85,1.18,2-.53-.45-3.77-.87-6.02-.42-2.25,0-5.39,0-5.39h-2.28c0,1.69-.97,4.79-2.96,4.79s-3.35.46-2.82,1.79Z"/><path class="cls-5" d="M238.1,323.36c0,.87.69,1.58,1.54,1.58s1.54-.71,1.54-1.58-.69-1.58-1.54-1.58-1.54.71-1.54,1.58Z"/><path class="cls-5" d="M227.45,311.41c0,.87.69,1.58,1.54,1.58s1.54-.71,1.54-1.58-.69-1.58-1.54-1.58-1.54.71-1.54,1.58Z"/><path class="cls-5" d="M227.9,315.77c0,.62.49,1.12,1.09,1.12s1.09-.5,1.09-1.12-.49-1.12-1.09-1.12-1.09.5-1.09,1.12Z"/><path class="cls-5" d="M217.76,311.47c.91.24,1.49-.41,1.85-1.18.27,1.26.53,3.22-.04,4.49-.9,1.98-3.07,4.23-.99,5.29,1.65.84,3.13-4.57,3.67-6.83.6,1.07,1.36,2.63,1.51,3.92.26,2.18-.19,3.97,1.55,3.9,1.74-.07,2-4.43,0-6.88-2-2.45-3.54-7.08-3.87-8.6,0,0,.08.05.2.15.12.09.3.21.5.36.42.29.97.65,1.56.94,1.18.57,2.48.84,3-.39.53-1.32-.82-1.79-2.82-1.79s-2.96-3.11-2.96-4.79h-2.28s.42,3.14,0,5.39c-.42,2.25-2.87,5.49-.87,6.02Z"/><path class="cls-5" d="M228.99,301.4c2.04,0,3.63,2.46,4.85,1.34,1.22-1.12-1.93-2.68-1.93-2.68h-5.83s-3.16,1.55-1.93,2.68c1.22,1.12,2.81-1.34,4.85-1.34Z"/><path class="cls-5" d="M226.09,364.69c-.03-.68-.42-1.21-.95-1.63-.53-.42-1.17-.74-1.82-1.03-.63-.27-1.27-.54-1.76-.74-.48-.2-.8-.35-.82-.36.39-.18,1.28-.56,1.99-1.15.69-.57,1.57-1.33,2.57-1.9,1-.55,1.43-1.94,1.4-3.13-.03-1.22-.53-2.1-1.4-2.2-.43-.02-.73.08-.94.27-.21.15-.32.34-.39.58-.14.48-.09,1.16-.22,1.88-.15.86-.91,1.64-1.51,2-.27-.79-.77-2.06-1.41-2.94-.64-.9-1.42-1.37-2.25-1.23-1.04.16-1.02.37-.63.76.39.38,1.16.98,1.61,1.58.58.76.31,1.61.04,1.98-.36-.57-.94-1.11-1.85-1.51-1-.44-.87-.16-.48.47.39.62.92,1.65.84,2.18-.06.53-.51.87-.95.94-.44.08-.81-.04-.81-.04l1.5,2.28c.43,0,1.21.11,2.08.29.87.19,1.86.48,2.77,1.37,1.76,1.79,3.34,2.72,3.4,1.27Z"/><path class="cls-5" d="M230.46,362.78c.03-.92-.61-1.96-1.47-2.33-.85-.37-1.54-.05-1.54.71s.69,1.82,1.54,2.37c.84.54,1.41.15,1.47-.75Z"/><path class="cls-5" d="M230.08,358.04c0-.65-.49-1.28-1.09-1.4-.6-.13-1.09.22-1.09.78s.49,1.18,1.09,1.4c.6.22,1.09-.13,1.09-.78Z"/><path class="cls-5" d="M239.56,367.57c-.78-.78-1.52-.18-2.07.63.17-1.75.31-4.55.91-6.27.5-1.32,1.23-2.8,1.64-4.26.39-1.45.41-2.85-.63-3.73-.83-.68-1.61,1.08-2.25,3.16-.65,2.11-1.1,4.61-1.54,5.95-.43-1.65-1.24-3.95-1.38-5.61-.26-2.79.19-5.13-1.55-4.91-.87-.01-1.37,1.26-1.4,2.79-.04,1.55.42,3.5,1.38,5.32.96,1.81,1.64,4.41,1.83,6.71.2,2.32-.59,4.38-1.11,5.25,0,0-.01-.11-.03-.29-.02-.18-.04-.42-.09-.71-.1-.58-.28-1.33-.59-2.01-.29-.67-.71-1.29-1.14-1.6-.44-.32-.89-.35-1.39.07-1.11.87-.55,2.12.88,3.55.71.69.58,1.96-.17,3.08-.73,1.12-2.05,1.96-3.05,2.2l1.3,1.99s.23-.11.62-.28c.39-.18.95-.46,1.59-.84.64-.38,1.34-.87,2.04-1.41.69-.55,1.36-1.14,1.97-1.69.59-.52,1.27-1.13,1.97-1.75.66-.62,1.28-1.27,1.76-1.91.93-1.25,1.35-2.59.51-3.45Z"/><path class="cls-5" d="M224.44,369.67c-.74-1.01-.87-2.05-1.16-3-.29-.96-.68-1.73-1.52-2.13-.83-.41-.86.2-.8.89.04.36.11.72.16,1,.06.29.11.49.11.49l1.91,2.91h0s1.7,2.59,1.7,2.59c0,0,.22.16.55.37.33.21.79.48,1.27.65.95.39,2.01.42,2.19-.41.18-.81-.64-1.13-1.6-1.5-1-.41-2.09-.88-2.81-1.86Z"/><path class="cls-5" d="M244.79,300.06h2v62.05c0,1.53-.02,3.06-.18,4.52-.35,2.92-1.15,5.5-2.22,7.7-1.1,2.27-2.67,4.55-4.61,6.48-1.93,1.94-4.24,3.53-6.43,4.56l-1.14-1.74c2.12-.91,4.33-2.4,6.17-4.24,1.84-1.84,3.3-4.02,4.29-6.21.96-2.12,1.66-4.58,1.97-7.34.15-1.37.17-2.82.16-4.26v-61.51Z"/><path class="cls-5" d="M212.01,300.06h2v54.11c-.02.35-.33.68-.69.68l-1.31-2v-52.78Z"/><path class="cls-5" d="M27.6,25.24c0-1.57-1.27-2.83-2.83-2.83s-2.83,1.27-2.83,2.83,1.27,2.84,2.83,2.84,2.83-1.27,2.83-2.84Z"/><path class="cls-5" d="M247.54,25.24c0-1.57-1.27-2.83-2.83-2.83s-2.83,1.27-2.83,2.83,1.27,2.84,2.83,2.84,2.83-1.27,2.83-2.84Z"/><path class="cls-5" d="M27.6,383.04c0-1.57-1.27-2.83-2.83-2.83s-2.83,1.27-2.83,2.83,1.27,2.83,2.83,2.83,2.83-1.27,2.83-2.83Z"/><path class="cls-5" d="M247.54,383.04c0-1.57-1.27-2.83-2.83-2.83s-2.83,1.27-2.83,2.83,1.27,2.83,2.83,2.83,2.83-1.27,2.83-2.83Z"/><path class="cls-2" d="M86.65,86.83h96.2c2.32,0,4.2,1.88,4.2,4.2v226.7c0,2.32-1.88,4.2-4.2,4.2h-96.2c-2.32,0-4.2-1.88-4.2-4.2V91.02c0-2.32,1.88-4.2,4.2-4.2Z"/><path class="cls-1" d="M86.65,86.83h96.2c2.32,0,4.2,1.88,4.2,4.2v226.7c0,2.32-1.88,4.2-4.2,4.2h-96.2c-2.32,0-4.2-1.88-4.2-4.2V91.02c0-2.32,1.88-4.2,4.2-4.2Z"/></g></svg>